<svg xmlns="http://www.w3.org/2000/svg" width="165" height="25" viewBox="0 0 165 25" fill="none"><path d="M12.1723 0.00012207L14.9051 8.41094H23.7488L16.5941 13.6091L19.3269 22.0199L12.1723 16.8218L5.01758 22.0199L7.75042 13.6091L0.595753 8.41094H9.43941L12.1723 0.00012207Z" fill="#FFC85D"></path><path d="M47.3344 0L50.0672 8.41082H58.9109L51.7562 13.609L54.489 22.0198L47.3344 16.8216L40.1797 22.0198L42.9125 13.609L35.7579 8.41082H44.6015L47.3344 0Z" fill="#FFC85D"></path><path d="M82.5004 0L85.2332 8.41082H94.0769L86.9222 13.609L89.655 22.0198L82.5004 16.8216L75.3457 22.0198L78.0785 13.609L70.9239 8.41082H79.7675L82.5004 0Z" fill="#FFC85D"></path><path d="M117.664 0L120.397 8.41082H129.241L122.086 13.609L124.819 22.0198L117.664 16.8216L110.51 22.0198L113.243 13.609L106.088 8.41082H114.932L117.664 0Z" fill="#FFC85D"></path><path d="M152.829 0L155.561 8.41082H164.405L157.25 13.609L159.983 22.0198L152.829 16.8216L145.674 22.0198L148.407 13.609L141.252 8.41082H150.096L152.829 0Z" fill="#FFC85D"></path></svg>