<svg xmlns="http://www.w3.org/2000/svg" xmlns:xlink="http://www.w3.org/1999/xlink" width="47px" height="47px" viewBox="0 0 47 47"><defs><clipPath id="clip1"><path d="M 5 15 L 43 15 L 43 44 L 5 44 Z M 5 15 "></path></clipPath><clipPath id="clip2"><path d="M 13.835938 0.597656 C 11.582031 -0.722656 3.199219 6.257812 0.519531 8.632812 L 5.363281 43.71875 C 8.042969 46.597656 12.628906 42.992188 14.886719 41.695312 L 40.285156 27.042969 C 61.199219 14.945312 14.792969 -17.445312 43.230469 -1 Z M 13.835938 0.597656 "></path></clipPath><clipPath id="clip3"><path d="M 5 7 L 34 7 L 34 37 L 5 37 Z M 5 7 "></path></clipPath><clipPath id="clip4"><path d="M 13.835938 0.597656 C 11.582031 -0.722656 3.199219 6.257812 0.519531 8.632812 L 5.363281 43.71875 C 8.042969 46.597656 12.628906 42.992188 14.886719 41.695312 L 40.285156 27.042969 C 61.199219 14.945312 14.792969 -17.445312 43.230469 -1 Z M 13.835938 0.597656 "></path></clipPath><clipPath id="clip5"><path d="M 5 2 L 21 2 L 21 21 L 5 21 Z M 5 2 "></path></clipPath><clipPath id="clip6"><path d="M 13.835938 0.597656 C 11.582031 -0.722656 3.199219 6.257812 0.519531 8.632812 L 5.363281 43.71875 C 8.042969 46.597656 12.628906 42.992188 14.886719 41.695312 L 40.285156 27.042969 C 61.199219 14.945312 14.792969 -17.445312 43.230469 -1 Z M 13.835938 0.597656 "></path></clipPath><clipPath id="clip7"><path d="M 9 4 L 40 4 L 40 43 L 9 43 Z M 9 4 "></path></clipPath><clipPath id="clip8"><path d="M 13.835938 0.597656 C 11.582031 -0.722656 3.199219 6.257812 0.519531 8.632812 L 5.363281 43.71875 C 8.042969 46.597656 12.628906 42.992188 14.886719 41.695312 L 40.285156 27.042969 C 61.199219 14.945312 14.792969 -17.445312 43.230469 -1 Z M 13.835938 0.597656 "></path></clipPath></defs><g id="surface1"><g clip-path="url(#clip1)" clip-rule="nonzero"><g clip-path="url(#clip2)" clip-rule="nonzero"><path style=" stroke:none;fill-rule:nonzero;fill:rgb(3.529412%,44.313726%,71.764708%);fill-opacity:1;" d="M 39.632812 18.816406 L 33.246094 15.136719 C 29.9375 19.355469 25.605469 23.667969 20.558594 27.632812 C 15.59375 31.554688 10.496094 34.667969 5.695312 36.902344 L 5.695312 38.402344 C 5.695312 42.1875 9.839844 44.589844 13.144531 42.675781 L 39.625 27.382812 C 42.925781 25.507812 42.933594 20.730469 39.632812 18.816406 "></path></g></g><g clip-path="url(#clip3)" clip-rule="nonzero"><g clip-path="url(#clip4)" clip-rule="nonzero"><path style=" stroke:none;fill-rule:nonzero;fill:rgb(16.862746%,66.666669%,88.627452%);fill-opacity:1;" d="M 33.246094 15.136719 L 20.835938 7.988281 C 18.4375 10.683594 15.570312 13.398438 12.332031 15.949219 C 10.144531 17.679688 7.9375 19.214844 5.695312 20.554688 L 5.695312 36.902344 C 10.496094 34.667969 15.59375 31.554688 20.558594 27.632812 C 25.605469 23.667969 29.9375 19.355469 33.246094 15.136719 "></path></g></g><g clip-path="url(#clip5)" clip-rule="nonzero"><g clip-path="url(#clip6)" clip-rule="nonzero"><path style=" stroke:none;fill-rule:nonzero;fill:rgb(43.137255%,77.64706%,84.705883%);fill-opacity:1;" d="M 5.695312 7.804688 L 5.695312 20.554688 C 7.9375 19.214844 10.144531 17.679688 12.332031 15.949219 C 15.570312 13.398438 18.425781 10.683594 20.828125 7.988281 L 13.136719 3.542969 C 9.835938 1.628906 5.695312 4.011719 5.695312 7.835938 "></path></g></g><g clip-path="url(#clip7)" clip-rule="nonzero"><g clip-path="url(#clip8)" clip-rule="nonzero"><path style=" stroke:none;fill-rule:nonzero;fill:rgb(80.000001%,80.000001%,80.392158%);fill-opacity:1;" d="M 38.34375 13.53125 C 38.308594 13.28125 38.195312 12.40625 38.195312 12.40625 C 38.195312 12.40625 38.140625 11.945312 38.179688 11.734375 C 38.21875 11.519531 38.207031 11.371094 38.148438 11.242188 C 38.09375 11.109375 37.847656 11.074219 37.769531 10.691406 C 37.6875 10.308594 37.710938 9.421875 37.800781 8.769531 C 37.890625 8.117188 38.070312 7.605469 37.964844 7.285156 C 37.859375 6.964844 37.597656 6.886719 37.597656 6.886719 C 37.597656 6.886719 37.480469 6.746094 37.332031 6.746094 C 37.179688 6.742188 36.929688 6.765625 36.746094 6.722656 C 36.5625 6.679688 36.105469 6.453125 35.875 6.398438 C 35.644531 6.34375 35.199219 6.207031 35.039062 6.265625 C 34.878906 6.324219 34.820312 6.480469 34.785156 6.605469 C 34.75 6.726562 34.757812 6.785156 34.757812 6.785156 C 34.757812 6.785156 34.59375 6.472656 34.324219 6.496094 C 34.058594 6.519531 33.933594 6.789062 33.949219 6.980469 C 33.96875 7.171875 34.035156 7.242188 34 7.351562 C 33.964844 7.457031 33.929688 7.550781 33.863281 7.664062 C 33.800781 7.773438 33.714844 7.839844 33.769531 7.957031 C 33.828125 8.070312 34.371094 8.949219 34.515625 9.386719 C 34.660156 9.824219 34.933594 10.324219 35.105469 10.5625 C 35.277344 10.800781 35.648438 10.945312 35.792969 11.21875 C 35.9375 11.488281 36.046875 11.769531 36.121094 12.078125 C 36.195312 12.386719 36.210938 12.550781 36.257812 13.195312 C 36.496094 15.078125 36.03125 17.222656 35.941406 19.085938 C 35.917969 19.109375 35.898438 19.128906 35.878906 19.148438 C 35.34375 19.082031 34.730469 18.070312 34.046875 17.878906 C 33.851562 17.824219 32.308594 17.457031 31.535156 17.632812 C 31.339844 17.675781 30.636719 17.847656 30.328125 17.78125 C 29.191406 17.503906 27.578125 16.582031 27.230469 15.554688 C 27.160156 15.441406 27.035156 12.066406 28.140625 11.472656 C 28.40625 11.238281 28.738281 10.121094 28.613281 9.757812 C 28.558594 9.554688 28.421875 9.441406 28.257812 9.34375 C 28.363281 8.386719 28.394531 8.113281 28.496094 7.15625 C 28.46875 7.015625 28.363281 6.460938 28.25 6.367188 C 28.140625 6.28125 28.007812 6.363281 27.972656 6.242188 C 27.9375 6.050781 27.894531 5.847656 27.851562 5.640625 C 27.410156 4.578125 23.824219 4.199219 23.195312 4.40625 C 22.878906 4.625 22.730469 4.40625 22.238281 4.914062 C 22.039062 5.246094 22.121094 5.671875 21.867188 5.953125 C 21.675781 6.164062 21.324219 6.296875 21.136719 6.554688 C 20.929688 6.871094 20.945312 7.183594 20.785156 7.59375 C 20.722656 7.65625 20.660156 7.714844 20.597656 7.761719 C 20.289062 8.492188 20.667969 8.625 20.78125 9.167969 C 20.863281 9.546875 20.589844 9.503906 20.515625 9.699219 C 20.25 10.347656 20.765625 11.335938 21.105469 11.589844 C 21.242188 11.6875 21.320312 11.644531 21.460938 11.738281 C 22.351562 12.527344 22.347656 15.328125 21.929688 16.117188 C 21.738281 16.304688 21.53125 16.511719 21.324219 16.71875 C 21.027344 16.867188 20.644531 16.921875 20.367188 17.074219 C 20.0625 17.234375 19.777344 17.363281 19.433594 17.507812 C 18.5625 17.878906 17.609375 17.847656 16.648438 18.109375 C 15.941406 18.3125 15.382812 18.640625 14.808594 19.023438 C 14.558594 19.207031 14.210938 19.550781 14.027344 19.816406 C 13.476562 20.628906 13 21.488281 12.671875 22.539062 C 12.417969 23.460938 12.476562 24.3125 12.191406 25.238281 C 12.144531 25.394531 11.914062 26.148438 11.707031 26.828125 C 11.558594 27.507812 11.300781 29.148438 11.234375 29.367188 C 11.027344 30.019531 10.222656 32.140625 10.179688 32.367188 C 10.058594 32.742188 10.082031 33.121094 9.960938 33.625 C 9.601562 35.117188 10.480469 36.3125 11.054688 37.039062 C 11.203125 37.253906 11.914062 38.136719 12.070312 38.316406 C 12.382812 38.757812 12.199219 39.605469 12.503906 40.027344 C 12.710938 40.355469 14.035156 41.054688 14.496094 41.140625 C 14.496094 41.140625 14.839844 41.265625 14.941406 40.882812 C 14.992188 40.699219 15.105469 40.824219 15.371094 40.644531 C 15.636719 40.46875 15.398438 40.320312 15.695312 40.203125 C 15.992188 40.082031 16.027344 39.96875 16.082031 39.757812 C 16.125 39.582031 16.375 39.566406 16.257812 39.226562 C 16.160156 38.945312 16.496094 38.957031 16.199219 38.5625 C 15.933594 38.355469 15.316406 38.167969 15.171875 38.046875 C 15.074219 37.777344 15.148438 37.777344 15.296875 37.671875 C 15.636719 37.511719 16.589844 37.660156 16.613281 37.554688 C 16.761719 37.394531 16.804688 37.140625 16.609375 37.046875 C 15.546875 36.714844 15.28125 36.921875 14.308594 36.359375 C 14.097656 36.339844 13.65625 35.769531 13.414062 35.46875 C 13.214844 34.882812 13.011719 33.9375 12.976562 33.625 C 12.714844 32.8125 14.128906 31.941406 14.628906 30.789062 C 14.773438 30.285156 15.078125 29.941406 15.253906 29.488281 C 15.316406 29.3125 15.886719 27.699219 15.960938 27.488281 L 16.289062 27.488281 C 16.289062 27.488281 16.40625 28.851562 16.597656 29.417969 C 16.957031 30.617188 17.300781 33.125 17.027344 34.394531 C 16.914062 34.886719 17.027344 37.171875 16.96875 37.644531 C 16.90625 38.117188 16.671875 39.507812 16.640625 39.980469 C 16.613281 40.453125 16.398438 42.351562 16.398438 42.351562 C 21.28125 42.328125 26.191406 42.304688 31.074219 42.285156 C 30.992188 41.640625 30.886719 40.511719 30.84375 39.957031 C 30.652344 38.414062 31.035156 36.46875 30.886719 35.722656 C 30.765625 34.125 30.792969 33.789062 30.949219 32.308594 C 31.28125 30.921875 31.714844 29.78125 31.78125 29.085938 C 31.84375 28.691406 31.90625 28.296875 31.96875 27.902344 C 32.484375 25.851562 33.105469 25.257812 33.671875 23.972656 C 34.347656 24.226562 34.597656 24.382812 35.085938 24.550781 C 35.957031 24.675781 36.859375 25.054688 38.289062 25.054688 C 38.722656 24.984375 38.957031 24.519531 39.136719 24.195312 C 39.261719 24.003906 39.324219 23.792969 39.410156 23.535156 C 39.484375 23.3125 39.488281 22.726562 39.460938 22.601562 C 39.480469 21.976562 39.390625 21.5 39.410156 20.855469 C 39.816406 18.976562 39.191406 17.011719 38.726562 15.386719 C 38.433594 14.355469 38.382812 13.78125 38.34375 13.53125 "></path><path style="fill:none;stroke-width:0.5736;stroke-linecap:butt;stroke-linejoin:miter;stroke:rgb(0%,0%,0%);stroke-opacity:1;stroke-miterlimit:4;" d="M 417.702128 147.404255 C 417.319149 144.680851 416.085106 135.148936 416.085106 135.148936 C 416.085106 135.148936 415.489362 130.12766 415.914894 127.829787 C 416.340426 125.489362 416.212766 123.87234 415.574468 122.468085 C 414.978723 121.021277 412.297872 120.638298 411.446809 116.468085 C 410.553191 112.297872 410.808511 102.638298 411.787234 95.531915 C 412.765957 88.425532 414.723404 82.851064 413.574468 79.361702 C 412.425532 75.87234 409.574468 75.021277 409.574468 75.021277 C 409.574468 75.021277 408.297872 73.489362 406.680851 73.489362 C 405.021277 73.446809 402.297872 73.702128 400.297872 73.234043 C 398.297872 72.765957 393.319149 70.297872 390.808511 69.702128 C 388.297872 69.106383 383.446809 67.617021 381.702128 68.255319 C 379.957447 68.893617 379.319149 70.595745 378.93617 71.957447 C 378.553191 73.276596 378.638298 73.914894 378.638298 73.914894 C 378.638298 73.914894 376.851064 70.510638 373.914894 70.765957 C 371.021277 71.021277 369.659574 73.957447 369.829787 76.042553 C 370.042553 78.12766 370.765957 78.893617 370.382979 80.085106 C 370 81.234043 369.617021 82.255319 368.893617 83.489362 C 368.212766 84.680851 367.276596 85.404255 367.87234 86.680851 C 368.510638 87.914894 374.425532 97.489362 376 102.255319 C 377.574468 107.021277 380.553191 112.468085 382.425532 115.06383 C 384.297872 117.659574 388.340426 119.234043 389.914894 122.212766 C 391.489362 125.148936 392.680851 128.212766 393.489362 131.574468 C 394.297872 134.93617 394.468085 136.723404 394.978723 143.744681 C 397.574468 164.255319 392.510638 187.617021 391.531915 207.914894 C 391.276596 208.170213 391.06383 208.382979 390.851064 208.595745 C 385.021277 207.87234 378.340426 196.851064 370.893617 194.765957 C 368.765957 194.170213 351.957447 190.170213 343.531915 192.085106 C 341.404255 192.553191 333.744681 194.425532 330.382979 193.702128 C 318 190.680851 300.425532 180.638298 296.638298 169.446809 C 295.87234 168.212766 294.510638 131.446809 306.553191 124.978723 C 309.446809 122.425532 313.06383 110.255319 311.702128 106.297872 C 311.106383 104.085106 309.617021 102.851064 307.829787 101.787234 C 308.978723 91.361702 309.319149 88.382979 310.425532 77.957447 C 310.12766 76.425532 308.978723 70.382979 307.744681 69.361702 C 306.553191 68.425532 305.106383 69.319149 304.723404 68 C 304.340426 65.914894 303.87234 63.702128 303.404255 61.446809 C 298.595745 49.87234 259.531915 45.744681 252.680851 48 C 249.234043 50.382979 247.617021 48 242.255319 53.531915 C 240.085106 57.148936 240.978723 61.787234 238.212766 64.851064 C 236.12766 67.148936 232.297872 68.595745 230.255319 71.404255 C 228 74.851064 228.170213 78.255319 226.425532 82.723404 C 225.744681 83.404255 225.06383 84.042553 224.382979 84.553191 C 221.021277 92.510638 225.148936 93.957447 226.382979 99.87234 C 227.276596 104 224.297872 103.531915 223.489362 105.659574 C 220.595745 112.723404 226.212766 123.489362 229.914894 126.255319 C 231.404255 127.319149 232.255319 126.851064 233.787234 127.87234 C 243.489362 136.468085 243.446809 166.978723 238.893617 175.574468 C 236.808511 177.617021 234.553191 179.87234 232.297872 182.12766 C 229.06383 183.744681 224.893617 184.340426 221.87234 186 C 218.553191 187.744681 215.446809 189.148936 211.702128 190.723404 C 202.212766 194.765957 191.829787 194.425532 181.361702 197.276596 C 173.659574 199.489362 167.574468 203.06383 161.319149 207.234043 C 158.595745 209.234043 154.808511 212.978723 152.808511 215.87234 C 146.808511 224.723404 141.617021 234.085106 138.042553 245.531915 C 135.276596 255.574468 135.914894 264.851064 132.808511 274.93617 C 132.297872 276.638298 129.787234 284.851064 127.531915 292.255319 C 125.914894 299.659574 123.106383 317.531915 122.382979 319.914894 C 120.12766 327.021277 111.361702 350.12766 110.893617 352.595745 C 109.574468 356.680851 109.829787 360.808511 108.510638 366.297872 C 104.595745 382.553191 114.170213 395.574468 120.425532 403.489362 C 122.042553 405.829787 129.787234 415.446809 131.489362 417.404255 C 134.893617 422.212766 132.893617 431.446809 136.212766 436.042553 C 138.468085 439.617021 152.893617 447.234043 157.914894 448.170213 C 157.914894 448.170213 161.659574 449.531915 162.765957 445.361702 C 163.319149 443.361702 164.553191 444.723404 167.446809 442.765957 C 170.340426 440.851064 167.744681 439.234043 170.978723 437.957447 C 174.212766 436.638298 174.595745 435.404255 175.191489 433.106383 C 175.659574 431.191489 178.382979 431.021277 177.106383 427.319149 C 176.042553 424.255319 179.702128 424.382979 176.468085 420.085106 C 173.574468 417.829787 166.851064 415.787234 165.276596 414.468085 C 164.212766 411.531915 165.021277 411.531915 166.638298 410.382979 C 170.340426 408.638298 180.723404 410.255319 180.978723 409.106383 C 182.595745 407.361702 183.06383 404.595745 180.93617 403.574468 C 169.361702 399.957447 166.468085 402.212766 155.87234 396.085106 C 153.574468 395.87234 148.765957 389.659574 146.12766 386.382979 C 143.957447 380 141.744681 369.702128 141.361702 366.297872 C 138.510638 357.446809 153.914894 347.957447 159.361702 335.404255 C 160.93617 329.914894 164.255319 326.170213 166.170213 321.234043 C 166.851064 319.319149 173.06383 301.744681 173.87234 299.446809 L 177.446809 299.446809 C 177.446809 299.446809 178.723404 314.297872 180.808511 320.468085 C 184.723404 333.531915 188.468085 360.851064 185.489362 374.680851 C 184.255319 380.042553 185.489362 404.93617 184.851064 410.085106 C 184.170213 415.234043 181.617021 430.382979 181.276596 435.531915 C 180.978723 440.680851 178.638298 461.361702 178.638298 461.361702 C 231.829787 461.106383 285.319149 460.851064 338.510638 460.638298 C 337.617021 453.617021 336.468085 441.319149 336 435.276596 C 333.914894 418.468085 338.085106 397.276596 336.468085 389.148936 C 335.148936 371.744681 335.446809 368.085106 337.148936 351.957447 C 340.765957 336.851064 345.489362 324.425532 346.212766 316.851064 C 346.893617 312.553191 347.574468 308.255319 348.255319 303.957447 C 353.87234 281.617021 360.638298 275.148936 366.808511 261.148936 C 374.170213 263.914894 376.893617 265.617021 382.212766 267.446809 C 391.702128 268.808511 401.531915 272.93617 417.106383 272.93617 C 421.829787 272.170213 424.382979 267.106383 426.340426 263.574468 C 427.702128 261.489362 428.382979 259.191489 429.319149 256.382979 C 430.12766 253.957447 430.170213 247.574468 429.87234 246.212766 C 430.085106 239.404255 429.106383 234.212766 429.319149 227.191489 C 433.744681 206.723404 426.93617 185.319149 421.87234 167.617021 C 418.680851 156.382979 418.12766 150.12766 417.702128 147.404255 Z M 417.702128 147.404255 " transform="matrix(0.0917969,0,0,0.0917969,0,0)"></path></g></g></g></svg>