<svg xmlns="http://www.w3.org/2000/svg" width="82" height="63" viewBox="0 0 82 63" fill="none"><path d="M7.33333 57.2917C2.75 52.25 0 46.75 0 37.5833C0 21.5417 11.4583 7.33333 27.5 0L31.625 5.95833C16.5 14.2083 13.2917 24.75 12.375 31.625C14.6667 30.25 17.875 29.7917 21.0833 30.25C29.3333 31.1667 35.75 37.5833 35.75 46.2917C35.75 50.4167 33.9167 54.5417 31.1667 57.75C27.9583 60.9583 24.2917 62.3333 19.7083 62.3333C14.6667 62.3333 10.0833 60.0417 7.33333 57.2917ZM53.1667 57.2917C48.5833 52.25 45.8333 46.75 45.8333 37.5833C45.8333 21.5417 57.2917 7.33333 73.3333 0L77.4583 5.95833C62.3333 14.2083 59.125 24.75 58.2083 31.625C60.5 30.25 63.7083 29.7917 66.9167 30.25C75.1667 31.1667 81.5833 37.5833 81.5833 46.2917C81.5833 50.4167 79.75 54.5417 77 57.75C74.25 60.9583 70.125 62.3333 65.5417 62.3333C60.5 62.3333 55.9167 60.0417 53.1667 57.2917Z" fill="#192950"></path></svg>