<svg xmlns="http://www.w3.org/2000/svg" width="82" height="63" viewBox="0 0 82 63" fill="none"><path d="M74.2487 5.04158C78.832 10.0832 81.582 15.5833 81.582 24.7499C81.582 40.7916 70.1237 54.9999 54.082 62.3333L49.957 56.3749C65.082 48.1249 68.2904 37.5832 69.207 30.7082C66.9154 32.0832 63.707 32.5416 60.4987 32.0832C52.2487 31.1666 45.832 24.7499 45.832 16.0416C45.832 11.9166 47.6654 7.79158 50.4154 4.58325C53.6237 1.37492 57.2904 -8.17997e-05 61.8737 -8.22004e-05C66.9154 -8.26411e-05 71.4987 2.29158 74.2487 5.04158ZM28.4154 5.04158C32.9987 10.0832 35.7487 15.5833 35.7487 24.7499C35.7487 40.7916 24.2904 54.9999 8.2487 62.3333L4.12369 56.3749C19.2487 48.1249 22.457 37.5832 23.3737 30.7083C21.082 32.0832 17.8737 32.5416 14.6654 32.0833C6.41536 31.1666 -0.00130791 24.7499 -0.00130867 16.0416C-0.00130903 11.9166 1.83203 7.79158 4.58203 4.58325C7.33203 1.37493 11.457 -7.77928e-05 16.0404 -7.81935e-05C21.082 -7.86343e-05 25.6654 2.29159 28.4154 5.04158Z" fill="#192950"></path></svg>