<svg xmlns="http://www.w3.org/2000/svg" viewBox="0 0 134.42 38.4"><path d="m.75.75h132.92v36.9h-132.92z" fill="#ef790c"></path><path d="m132.92 1.5v35.4h-131.42v-35.4zm1.5-1.5h-134.42v38.4h134.42z" fill="#fff"></path><path d="m34 9.86c-8.2-4.13-14.27-4.13-22.36 0 0 0-3.73 17.33 11.25 21.81 14.88-4.47 11.11-21.81 11.11-21.81" fill="#fff"></path><g fill="#ef790c"><path d="m18.32 23h-.07a.25.25 0 0 1 -.15-.13.38.38 0 0 1 0-.34 2.17 2.17 0 0 1 1.52-1.44l.15-.06c.6-.24 1.17-.46 1.57-1.87v-.07l.48.38a3 3 0 0 1 -2 2.07h-.07a1.59 1.59 0 0 0 -1.13 1v.06c-.04.29-.11.4-.3.4zm-3.79-4.48a.27.27 0 0 1 -.25-.15.22.22 0 0 1 0-.19.41.41 0 0 1 .27-.2c.57-.19.68-.53.78-1.07a2.15 2.15 0 0 1 .93-1.6l.47.36h-.1c-.35.1-.63.52-.75 1.13v.16a1.64 1.64 0 0 1 -1.16 1.5.42.42 0 0 1 -.19.06z"></path><path d="m17.9 24h-.09a2.65 2.65 0 0 1 -2-2.09 4.2 4.2 0 0 1 2.06-3.63c1.13-.81 1.72-1.73 1.61-2.54a1.24 1.24 0 0 0 -.83-1 1.71 1.71 0 0 0 -.62-.11 2.8 2.8 0 0 0 -1.73.7l-.47-.33a3.32 3.32 0 0 1 2.17-.92 2.26 2.26 0 0 1 .81.15 1.79 1.79 0 0 1 1.19 1.45c.13 1-.54 2.12-1.83 3a3.68 3.68 0 0 0 -1.84 3.12 2.2 2.2 0 0 0 1.67 1.7.27.27 0 0 1 .16.35.27.27 0 0 1 -.26.15zm-1.73 6a.54.54 0 0 1 -.27-.1l-2.11-1.27a2.69 2.69 0 0 0 .66-2 2 2 0 0 1 .39-2 1.35 1.35 0 0 1 1-.41 1.77 1.77 0 0 1 .46.07 5 5 0 0 1 .72.28 2.68 2.68 0 0 0 1.06.32h.23a.27.27 0 0 1 .22.43.27.27 0 0 1 -.18.11h-.27a3.14 3.14 0 0 1 -1.28-.37 4.27 4.27 0 0 0 -.65-.25 1.19 1.19 0 0 0 -.32 0 .81.81 0 0 0 -.6.25 1.51 1.51 0 0 0 -.26 1.45 2.38 2.38 0 0 1 -.31 1.49l-.1.17-.09.14 1.71 1c.18.11.34.24.25.43a.25.25 0 0 1 -.26.26zm11.64-3.37h-.23a10.79 10.79 0 0 1 -1.58-.55l-.14-.08v-.68c0-.42-.06-1.51-.25-1.63a2.49 2.49 0 0 0 -.85-.24.27.27 0 0 1 -.18-.1.26.26 0 0 1 -.05-.2.27.27 0 0 1 .3-.23 3 3 0 0 1 1.06.32c.4.24.47 1 .51 2.06v.37a8.68 8.68 0 0 0 1.29.43h.16a1.28 1.28 0 0 0 1.08-.69 1.05 1.05 0 0 1 .9-.43 1.52 1.52 0 0 1 .35 0 .28.28 0 0 1 .17.13.26.26 0 0 1 0 .21c0 .12-.16.19-.33.18h-.21a.54.54 0 0 0 -.46.2 1.88 1.88 0 0 1 -1.54.93z"></path><path d="m20.2 28.55-.12-.12c-.57-.59-1.9-1.71-2.89-1.71a.93.93 0 0 0 -.58.18.27.27 0 0 1 -.16.05.27.27 0 0 1 -.16-.49 1.46 1.46 0 0 1 .9-.29c1.24 0 2.7 1.31 3.13 1.73l.82-.5c.58-.36.48-.87.21-1.9-.06-.22-.12-.45-.17-.7a2.64 2.64 0 0 1 .47-2.17 2.14 2.14 0 0 1 1.9-.61h.58a4.09 4.09 0 0 0 2.67-.79.3.3 0 0 1 .2-.08.26.26 0 0 1 .18.07.27.27 0 0 1 0 .38 4.55 4.55 0 0 1 -3.09 1h-.61a1.64 1.64 0 0 0 -1.45.43 2.11 2.11 0 0 0 -.34 1.7c.05.25.12.49.17.7.26 1 .49 1.92-.45 2.5-.76.47-1.12.67-1.16.7zm7.48-13.44a1.74 1.74 0 0 1 -1.14-.47 1.72 1.72 0 0 0 -.48-.31 3 3 0 0 0 -.85-.16 1.83 1.83 0 0 1 -1.21-.46 1.11 1.11 0 0 1 -.29-1.32.8.8 0 0 1 .69-.36 1.2 1.2 0 0 1 .47.1 7 7 0 0 1 .92.53 3.66 3.66 0 0 0 .94.5s.07 0 .14-.07a1.14 1.14 0 0 0 .21-.72s-.05-.07-.41-.23a3.17 3.17 0 0 1 -.4-.2 1.43 1.43 0 0 1 -.45-.6c-.13-.25-.27-.51-.48-.58s-2.79-.76-2.81-.76a.25.25 0 0 1 .07-.49h.08c.42.11 2.53.69 2.8.77a1.45 1.45 0 0 1 .77.82 1.2 1.2 0 0 0 .27.4 2.91 2.91 0 0 0 .34.17c.32.14.64.29.7.6a1.63 1.63 0 0 1 -.34 1.15.64.64 0 0 1 -.55.21 3.27 3.27 0 0 1 -1.16-.58 6.83 6.83 0 0 0 -.85-.49.73.73 0 0 0 -.28-.06.28.28 0 0 0 -.25.14.59.59 0 0 0 .19.67 1.37 1.37 0 0 0 .93.35 3.49 3.49 0 0 1 1 .19 2.14 2.14 0 0 1 .63.39 1.25 1.25 0 0 0 .84.36 1.31 1.31 0 0 0 .52-.09h.14a.23.23 0 0 1 .23.15.25.25 0 0 1 0 .19.24.24 0 0 1 -.14.12 2.2 2.2 0 0 1 -.79.14zm1.62 2.73a2 2 0 0 1 -1.46-.77 3.92 3.92 0 0 0 -2.33-.73 6.92 6.92 0 0 1 -1.35-.23 1.24 1.24 0 0 1 -.94-1 .76.76 0 0 1 .41-.75.73.73 0 0 1 .32-.07 1.32 1.32 0 0 1 .87.41.91.91 0 0 0 .57.28h.11a.23.23 0 0 1 .26.19.2.2 0 0 1 0 .17.44.44 0 0 1 -.34.11 1.59 1.59 0 0 1 -.85-.37 1 1 0 0 0 -.57-.28h-.11a.26.26 0 0 0 -.12.26c0 .2.18.46.6.6a6.73 6.73 0 0 0 1.25.21 4.21 4.21 0 0 1 2.65.89 1.53 1.53 0 0 0 1.09.61 1.29 1.29 0 0 0 .62-.18.25.25 0 1 1 .24.44 1.79 1.79 0 0 1 -.92.21z"></path><path d="m29.08 20.4a4.62 4.62 0 0 1 -3.45-1.28l-1.85.57h-.14a.47.47 0 0 1 -.28-.09l-2.36-1.79a.47.47 0 0 1 -.18-.47l.36-2-1.73-1.68a.47.47 0 0 1 0-.65l1.86-1.57-.81-2.5c-.07-.23 0-.37.15-.42s.29 0 .34.24l.83 2.63a.47.47 0 0 1 -.1.41l-1.82 1.53 1.73 1.67a.47.47 0 0 1 .14.44l-.35 2 2.19 1.76 1.92-.58h.14a.47.47 0 0 1 .4.22c.12.18.83 1.1 2.89 1.1.31 0 .64 0 1-.06s.37.06.39.23-.1.26-.35.3a5.38 5.38 0 0 1 -.92-.01zm.78 8.22h-.07a.5.5 0 0 1 -.19-.1 1.69 1.69 0 0 0 -1-.42 1.28 1.28 0 0 0 -.51.12h-.07a3.26 3.26 0 0 1 -1.09.3h-.27a2.12 2.12 0 0 1 -2-1.08 9.17 9.17 0 0 1 -.66-1.59l-1 .15h-.1a.29.29 0 0 1 -.32-.21c0-.14 0-.3.3-.36l1.5-.29c.46 1.87.93 2.8 2.28 2.76a2.14 2.14 0 0 0 .83-.16l.15-.07a2.18 2.18 0 0 1 .91-.25 2 2 0 0 1 1.16.45 1.4 1.4 0 0 1 .3.27.23.23 0 0 1 0 .27.29.29 0 0 1 -.15.21z"></path><path d="m29.63 19.18a2.48 2.48 0 0 1 -.86-.16 4.83 4.83 0 0 0 -1.62-.35l-.15-.5h.16a5.38 5.38 0 0 1 1.8.38 2 2 0 0 0 .69.13 2.94 2.94 0 0 0 2-1.05l.05-.05a2 2 0 0 1 .24-.22.35.35 0 0 1 .2-.07.24.24 0 0 1 .24.24.3.3 0 0 1 -.1.2l-.13.12-.17.16a3.45 3.45 0 0 1 -2.35 1.17zm-4.12-9.37.46.13a1.33 1.33 0 0 0 -.11-1.31l-.07-.08h-.12a1.35 1.35 0 0 0 -.86.38 1.8 1.8 0 0 0 -.62-1.32l-.07-.05h-.12a1.84 1.84 0 0 0 -1.31.88 1.17 1.17 0 0 0 -1-.64h-.13a.24.24 0 0 0 -.21.26.24.24 0 0 0 .26.21h.08c.51 0 .69.5.74.71l.46.13c0-.1.46-.94 1.08-1.05a1.86 1.86 0 0 1 .35 1.44l.48.13a1.73 1.73 0 0 1 .77-.63 1.11 1.11 0 0 1 -.06.77z"></path></g><path d="m101.83 30.55v-22.76h-4.47v8.97h-5.72v-8.97h-4.47v22.76h4.47v-9.82h5.72v9.82zm-21.18 0v-22.76h-4.08v9.43c0 1.43.11 3.9.14 5.3-.47-1.27-1.36-3.38-2-4.75l-4.4-10h-4.47v22.78h4.08v-9.55c0-1.43 0-3.77-.07-5.17.47 1.33 1.25 3.19 1.9 4.62l4.61 10.15zm-19.14 0-6.08-14.24 5.33-8.52h-4.76l-3.9 6.7c-.68 1.14-1.47 2.57-2 3.51 0-1 .07-2.15.07-3.48v-6.73h-4.43v22.76h4.47v-6.11l2.25-3.67 4 9.79zm61.64-7.05a5.25 5.25 0 0 0 -3.68-5.17 4.68 4.68 0 0 0 3.08-4.45c0-3.77-2.86-6.08-7.44-6.08h-6.76v22.76h6.51c5.37 0 8.3-2.37 8.3-7.06" fill="#fff"></path><path d="m118.72 23.6c0 1.89-1.07 3.22-3.61 3.22h-2.4v-6.67h2.29c2.61 0 3.75 1.07 3.75 3.45m-.64-9.6c0 1.3-.68 2.47-2.86 2.47h-2.54v-5h2.43c2.18 0 3 .94 3 2.5" fill="#ef790c"></path></svg>