<svg xmlns="http://www.w3.org/2000/svg" width="16" height="16" viewBox="0 0 16 16" fill="none"><path d="M8.2324 1.78326C10.3023 1.78326 10.5474 1.79234 11.3615 1.82865C12.118 1.86194 12.5266 1.98904 12.7989 2.09495C13.159 2.23416 13.4193 2.40363 13.6886 2.67296C13.961 2.94531 14.1274 3.20254 14.2666 3.56266C14.3725 3.83501 14.4996 4.24658 14.5329 5.0001C14.5692 5.81717 14.5783 6.06229 14.5783 8.12918C14.5783 10.1991 14.5692 10.4442 14.5329 11.2583C14.4996 12.0148 14.3725 12.4233 14.2666 12.6957C14.1274 13.0558 13.9579 13.3161 13.6886 13.5854C13.4163 13.8578 13.159 14.0242 12.7989 14.1634C12.5266 14.2693 12.115 14.3964 11.3615 14.4297C10.5444 14.466 10.2993 14.4751 8.2324 14.4751C6.16248 14.4751 5.91736 14.466 5.10332 14.4297C4.34677 14.3964 3.93823 14.2693 3.66588 14.1634C3.30576 14.0242 3.04551 13.8547 2.77618 13.5854C2.50382 13.313 2.33738 13.0558 2.19817 12.6957C2.09226 12.4233 1.96516 12.0118 1.93187 11.2583C1.89556 10.4412 1.88648 10.1961 1.88648 8.12918C1.88648 6.05926 1.89556 5.81414 1.93187 5.0001C1.96516 4.24355 2.09226 3.83501 2.19817 3.56266C2.33738 3.20254 2.50685 2.94229 2.77618 2.67296C3.04853 2.4006 3.30576 2.23416 3.66588 2.09495C3.93823 1.98904 4.3498 1.86194 5.10332 1.82865C5.91736 1.79234 6.16248 1.78326 8.2324 1.78326ZM8.2324 0.388184C6.1292 0.388184 5.86592 0.397262 5.03977 0.433576C4.21664 0.469891 3.65075 0.603043 3.1605 0.793693C2.64908 0.993421 2.21633 1.2567 1.78661 1.68945C1.35387 2.11916 1.09059 2.55191 0.890861 3.06031C0.700211 3.55358 0.567059 4.11645 0.530744 4.93957C0.49443 5.76875 0.485352 6.03203 0.485352 8.13523C0.485352 10.2384 0.49443 10.5017 0.530744 11.3279C0.567059 12.151 0.700211 12.7169 0.890861 13.2071C1.09059 13.7185 1.35387 14.1513 1.78661 14.581C2.21633 15.0107 2.64908 15.277 3.15748 15.4737C3.65075 15.6644 4.21362 15.7975 5.03674 15.8339C5.86289 15.8702 6.12617 15.8792 8.22937 15.8792C10.3326 15.8792 10.5959 15.8702 11.422 15.8339C12.2451 15.7975 12.811 15.6644 13.3013 15.4737C13.8097 15.277 14.2424 15.0107 14.6721 14.581C15.1018 14.1513 15.3682 13.7186 15.5649 13.2102C15.7555 12.7169 15.8887 12.154 15.925 11.3309C15.9613 10.5047 15.9704 10.2415 15.9704 8.13826C15.9704 6.03505 15.9613 5.77178 15.925 4.94563C15.8887 4.1225 15.7555 3.5566 15.5649 3.06636C15.3742 2.55191 15.1109 2.11916 14.6782 1.68945C14.2485 1.25973 13.8157 0.993422 13.3073 0.796719C12.814 0.606069 12.2512 0.472917 11.4281 0.436603C10.5989 0.397262 10.3356 0.388184 8.2324 0.388184Z" fill="#192950"></path><path d="M8.23237 4.15564C6.03536 4.15564 4.25293 5.93807 4.25293 8.13508C4.25293 10.3321 6.03536 12.1145 8.23237 12.1145C10.4294 12.1145 12.2118 10.3321 12.2118 8.13508C12.2118 5.93807 10.4294 4.15564 8.23237 4.15564ZM8.23237 10.7164C6.80703 10.7164 5.65103 9.56041 5.65103 8.13508C5.65103 6.70974 6.80703 5.55374 8.23237 5.55374C9.6577 5.55374 10.8137 6.70974 10.8137 8.13508C10.8137 9.56041 9.6577 10.7164 8.23237 10.7164Z" fill="#192950"></path><path d="M13.3024 3.9988C13.3024 4.51326 12.8848 4.92785 12.3734 4.92785C11.8589 4.92785 11.4443 4.51023 11.4443 3.9988C11.4443 3.48435 11.862 3.06976 12.3734 3.06976C12.8848 3.06976 13.3024 3.48738 13.3024 3.9988Z" fill="#192950"></path></svg>