<svg xmlns="http://www.w3.org/2000/svg" width="16" height="16" viewBox="0 0 16 16" fill="none"><path d="M15.8732 15.8735V10.2021C15.8732 7.41481 15.2733 5.28564 12.0214 5.28564C10.4535 5.28564 9.4083 6.13731 8.98246 6.95027H8.94375V5.53735H5.86621V15.8735H9.07932V10.7441C9.07932 9.38913 9.33087 8.09235 10.9955 8.09235C12.6408 8.09235 12.6601 9.62141 12.6601 10.8215V15.8541H15.8732V15.8735Z" fill="#192950"></path><path d="M0.638672 5.53711H3.85178V15.8733H0.638672V5.53711Z" fill="#192950"></path><path d="M2.24588 0.388184C1.22001 0.388184 0.387695 1.22049 0.387695 2.24637C0.387695 3.27224 1.22001 4.12391 2.24588 4.12391C3.27175 4.12391 4.10406 3.27224 4.10406 2.24637C4.10406 1.22049 3.27175 0.388184 2.24588 0.388184Z" fill="#192950"></path></svg>