<svg xmlns="http://www.w3.org/2000/svg" width="42" height="47" viewBox="0 0 42 47" fill="none"><path d="M16.7819 5.67152L16.7092 6.55541C14.85 8.49406 13.2477 10.0977 11.9023 11.3664C8.35596 14.7082 4.39323 17.7373 0.0141189 20.4536C0.00739214 15.8403 0.0060467 11.2836 0.0100827 6.78345C0.0100827 5.34662 0.10493 4.35509 0.294624 3.80888C1.23502 1.10473 4.13291 -0.471351 6.84513 0.125984C7.40883 0.251102 8.5766 0.838347 10.3484 1.88772C12.4795 3.151 14.6239 4.41227 16.7819 5.67152Z" fill="#6EC6D8"></path><path d="M24.9761 10.4703C24.7581 11.0084 24.6196 11.4558 24.5604 11.8123C24.4595 12.4056 24.4036 13.1361 24.3929 14.0038C24.3848 14.6025 24.6055 15.1158 25.0548 15.5436C26.4001 16.8217 27.7159 17.31 29.0021 17.0087C30.1658 16.8634 31.2589 16.9656 32.2813 17.3154C32.3255 17.3315 32.367 17.3546 32.4044 17.384L33.9825 18.6493C33.9992 18.6624 34.0191 18.6708 34.0402 18.6736C34.0612 18.6764 34.0826 18.6735 34.1021 18.6653C34.1217 18.6571 34.1386 18.6438 34.1513 18.6268C34.164 18.6098 34.1719 18.5897 34.1743 18.5686L34.4265 16.0158C34.6915 14.2669 34.6989 12.5549 34.4487 10.8799C34.3976 10.5436 34.2671 10.1508 34.0572 9.70142C34.0071 9.59323 33.9274 9.50097 33.8272 9.43504C33.3617 9.12023 33.0159 8.66146 32.7899 8.05875C32.5262 7.35378 32.1892 6.66496 31.7789 5.99229C31.7447 5.93592 31.7274 5.87104 31.7292 5.80549C31.731 5.73995 31.7518 5.67655 31.7889 5.62299C31.9517 5.38621 32.0156 5.17566 31.9807 4.99135C31.9336 4.74649 31.9376 4.56958 31.9928 4.46061C32.0957 4.25477 32.4266 4.05297 32.6567 4.21037C32.6971 4.23728 32.7388 4.25544 32.7818 4.26486C32.8134 4.27177 32.8464 4.26753 32.8754 4.25284C32.9044 4.23816 32.9276 4.21391 32.9412 4.18414C33.1773 3.6655 33.7666 3.92987 34.1763 4.04086C34.6384 4.16597 35.038 4.44446 35.486 4.4485C35.8492 4.45253 36.1008 4.5124 36.2407 4.6281C36.5999 4.92408 36.7277 5.27185 36.6241 5.67142C36.4237 6.44769 36.3241 7.44392 36.3255 8.66012C36.3255 9.04085 36.4634 9.33885 36.7392 9.5541C36.7742 9.58169 36.8023 9.61686 36.8212 9.6568C36.8401 9.69674 36.8493 9.74035 36.8481 9.78416C36.8266 10.547 36.8885 11.4423 37.0338 12.4701C37.1011 12.9424 37.3082 13.8229 37.6553 15.1117C37.9473 16.1961 38.1921 17.2704 38.3899 18.3345C38.363 18.6332 38.3704 18.9124 38.4121 19.172C38.4202 19.2243 38.4222 19.2771 38.4182 19.3294C38.3657 20.0075 38.2446 20.5322 38.2628 21.1638C38.2897 22.1257 38.2978 22.8858 38.287 23.4442C38.2789 23.8155 38.1202 24.2904 37.8107 24.8689C37.5094 25.4286 37.0627 25.6848 36.4708 25.6378C34.8954 25.514 33.3435 25.1279 31.8152 24.4794C31.7869 24.4674 31.7552 24.4665 31.7266 24.477C31.698 24.4876 31.6748 24.5087 31.6618 24.5359C30.9172 26.0515 30.0272 27.5105 29.7487 29.2843C29.6936 29.6355 29.6398 29.9853 29.5873 30.3337C29.5442 30.6162 29.4164 31.1315 29.2039 31.8795C29.0101 32.5589 28.8547 33.2619 28.7377 33.9883C28.8184 33.9507 28.7471 34.0065 28.5238 34.1558C28.735 33.2276 28.9657 32.3208 29.216 31.4355C29.3586 30.9257 29.4527 30.5079 29.4985 30.1824C29.6478 29.1269 29.8093 28.3641 30.1342 27.4298C30.4994 26.3804 31.2522 25.1696 31.6255 24.3704C31.6392 24.3424 31.6631 24.3208 31.6922 24.3102C31.7212 24.2997 31.7531 24.301 31.7809 24.3139C33.2191 24.9785 34.7877 25.3821 36.4869 25.5248C36.9726 25.5665 37.3439 25.3801 37.6009 24.9658C38.1558 24.0677 38.2587 23.4381 38.1942 22.3565C38.1403 21.4268 38.1471 20.7057 38.2143 20.1931C38.2924 19.5985 38.3052 19.0711 38.2527 18.611C38.061 16.9421 37.6372 15.5032 37.167 13.7375C36.9208 12.8092 36.7762 11.5519 36.7331 9.96578C36.7305 9.8547 36.6899 9.74787 36.6181 9.66307C36.4015 9.40746 36.2824 9.18009 36.2609 8.98098C36.1708 8.09709 36.2394 7.0652 36.4667 5.88533C36.5858 5.26378 36.5656 4.97319 36.0308 4.63618C35.9756 4.60204 35.9115 4.58582 35.8472 4.58976C35.0016 4.63214 34.3054 4.05902 33.3933 3.98435C33.3218 3.97909 33.2508 3.99987 33.1935 4.04288C33.0751 4.13167 33.0045 4.27159 32.9816 4.46263C32.9794 4.48034 32.9722 4.49706 32.9608 4.51076C32.9493 4.52447 32.9342 4.5346 32.9172 4.53992C32.9001 4.54524 32.8819 4.54554 32.8647 4.54078C32.8475 4.53602 32.832 4.5264 32.8202 4.51308C32.7246 4.40545 32.6735 4.34894 32.6668 4.34356C32.6034 4.30021 32.5289 4.27838 32.4528 4.28082C32.3767 4.28325 32.3023 4.30984 32.239 4.35725C32.1756 4.40466 32.1261 4.47078 32.0967 4.54733C32.0672 4.62387 32.0592 4.70743 32.0735 4.78753C32.134 5.12117 32.0775 5.42186 31.904 5.68958C31.8813 5.72561 31.8686 5.76702 31.8672 5.80957C31.8657 5.85213 31.8757 5.89429 31.8959 5.93175L32.5538 7.13853C32.5592 7.14793 32.5639 7.15737 32.5679 7.16678C32.9937 8.32311 33.2016 8.81752 33.9482 9.37248C34.0291 9.43348 34.0941 9.51233 34.1379 9.60253C34.3626 10.0546 34.5039 10.4804 34.5617 10.8799C34.9411 13.4933 34.5557 15.8463 34.2933 18.6332C34.2897 18.6747 34.2748 18.7145 34.25 18.748C34.2252 18.7816 34.1917 18.8076 34.153 18.8233C34.1144 18.839 34.0722 18.8436 34.031 18.8368C33.9899 18.83 33.9515 18.8119 33.92 18.7845L32.4872 17.5576C32.4247 17.5031 32.351 17.4625 32.2713 17.4385C31.4143 17.1748 30.5405 17.0369 29.6498 17.0248C29.6176 17.0248 29.5858 17.0282 29.555 17.0349L28.326 17.2771C28.1681 17.3076 28.0043 17.3007 27.8477 17.2569C26.7849 16.9569 25.8586 16.4497 25.0689 15.7353C24.5133 15.2295 24.2462 14.6032 24.2678 13.8565C24.298 12.7749 24.401 11.7376 24.7662 10.658C24.8254 10.4858 25.0131 10.2301 25.3292 9.89111C25.7127 9.47809 25.9125 8.89623 25.9286 8.14552C25.9299 8.06241 25.9083 7.98007 25.866 7.90739C25.8028 7.80246 25.7187 7.70895 25.6138 7.62689C25.5774 7.59862 25.5489 7.56135 25.5308 7.51862C25.5128 7.47589 25.506 7.42911 25.5109 7.38271C25.5983 6.54052 25.6817 5.75752 25.7611 5.03373C25.7746 4.9113 25.71 4.63887 25.5674 4.21643C25.5544 4.17712 25.5315 4.14202 25.501 4.11471C25.4705 4.08741 25.4335 4.06889 25.3938 4.06104C25.3898 4.06104 25.3656 4.05767 25.3212 4.05095C25.289 4.0461 25.259 4.03176 25.2353 4.00979C25.2115 3.98782 25.195 3.95925 25.188 3.92785L25.0064 3.16504C24.9958 3.12024 24.9727 3.07959 24.9398 3.04799C23.8722 2.02485 21.499 1.76049 20.1046 1.81296C20.0417 1.81564 19.9792 1.82718 19.9189 1.84727C19.1803 2.09145 18.7485 2.17822 18.6375 2.91884C18.5621 3.422 18.3112 3.78659 17.8848 4.0126C17.3742 4.28302 17.2693 5.15884 17.1502 5.48173C17.1291 5.54105 17.092 5.59284 17.0432 5.63106C16.6336 5.95395 16.8959 6.68043 17.0917 7.08202C17.1476 7.19553 17.1718 7.31855 17.1605 7.43274C17.1492 7.54693 17.1031 7.64618 17.0291 7.71568C16.9955 7.74797 16.9201 7.86098 16.8031 8.05471C16.7623 8.12317 16.7427 8.2018 16.7466 8.28073C16.7802 8.93322 16.9988 9.48145 17.4024 9.92542C17.6063 10.1494 17.9029 10.1333 18.0886 10.3976C18.8252 11.451 18.807 13.4126 18.6456 14.6436C18.5285 15.5476 17.8605 16.0017 16.9302 16.3548C16.6773 16.4504 16.2246 16.6495 15.5721 16.9522C14.7165 17.3477 13.1404 17.4002 12.2545 17.6948C10.7046 18.2114 9.56847 19.1861 8.84602 20.6189C8.25138 21.8001 7.91302 22.7062 7.83095 23.3372C7.6157 24.9906 7.37353 26.1719 7.10446 26.8809C6.99684 27.1688 6.88248 27.6269 6.7614 28.2551C6.65243 28.8175 6.56969 29.281 6.51318 29.6456C6.24277 31.3871 5.22568 33.2518 4.98352 34.8299C4.86109 35.6223 4.80122 36.081 4.80391 36.2062C4.83015 37.9417 6.05509 39.322 7.14483 40.6519C7.29204 40.8309 7.39443 41.0426 7.44349 41.2694C7.56256 41.8243 7.47578 42.6154 7.98836 43.0089C8.53726 43.43 9.15814 43.7677 9.851 44.022C9.92621 44.0496 10.0074 44.0573 10.0866 44.0442C10.1658 44.0311 10.2404 43.9977 10.303 43.9473C10.6676 43.654 11.0282 43.3197 11.3847 42.9443C11.8408 42.462 12.0062 42.0403 11.9619 41.4328C11.9581 41.3817 11.9418 41.3322 11.9144 41.2886C11.8869 41.245 11.8492 41.2086 11.8044 41.1826L10.8721 40.6438C10.8095 40.6079 10.7602 40.5526 10.7318 40.4863C10.7033 40.42 10.6971 40.3463 10.7142 40.2761C10.7313 40.206 10.7707 40.1433 10.8264 40.0975C10.8822 40.0518 10.9514 40.0253 11.0235 40.0222L12.2181 39.9657C12.2743 39.9633 12.3283 39.9436 12.3728 39.9092C12.4173 39.8749 12.4501 39.8276 12.4667 39.7739C12.4833 39.7202 12.4828 39.6627 12.4654 39.6092C12.448 39.5558 12.4145 39.509 12.3695 39.4754C12.2874 39.4121 12.1381 39.363 11.9215 39.328C10.2506 39.0637 8.85207 38.6359 8.45049 36.7409C8.3738 36.3777 8.29712 35.9714 8.22043 35.522C8.14509 35.0781 8.19487 34.7465 8.36977 34.5272C9.22541 33.4556 9.6835 32.9753 10.1598 31.9865C10.7248 30.8106 11.1856 29.6348 11.5421 28.459C11.5597 28.4034 11.5958 28.3554 11.6444 28.3231C11.6929 28.2908 11.751 28.276 11.8091 28.2811C11.8672 28.2863 11.9218 28.3112 11.9639 28.3516C12.006 28.392 12.033 28.4455 12.0406 28.5034C12.1401 29.3186 12.2921 30.1393 12.4966 30.9653C12.7038 31.8035 12.8316 32.5038 12.8801 33.0661C12.9742 34.1532 13.0092 34.8628 12.985 35.1951C12.8706 36.8176 12.8182 38.1011 12.8276 39.0455C12.833 39.5877 12.7731 40.3108 12.648 41.2149C12.539 42.0019 12.461 42.8004 12.4139 43.6103L12.2545 43.6749L12.7126 39.9153C12.7154 39.8945 12.7106 39.8735 12.6991 39.856C12.6876 39.8385 12.6701 39.8258 12.65 39.8201C12.6298 39.8145 12.6083 39.8163 12.5894 39.8253C12.5705 39.8342 12.5555 39.8497 12.5471 39.8689C12.4812 40.0169 12.3533 40.0922 12.1637 40.0949C11.6605 40.103 11.3242 40.1137 11.1546 40.1272C10.9972 40.1406 10.8883 40.1891 10.8277 40.2725C10.8089 40.2986 10.7967 40.3289 10.7921 40.3611C10.7874 40.3933 10.7904 40.4266 10.8009 40.4585C10.8113 40.4904 10.8289 40.5202 10.8524 40.5456C10.8759 40.571 10.9047 40.5915 10.9367 40.6055C11.421 40.8207 11.6921 40.9418 11.75 40.9687C11.8509 41.0142 11.9361 41.0886 11.9946 41.1824C12.0532 41.2761 12.0825 41.3851 12.0789 41.4954C12.0681 41.8021 12.0002 42.1358 11.8751 42.4963C11.7439 42.8777 11.3363 43.0473 11.1365 43.4065C11.0929 43.487 11.028 43.554 10.9488 43.6002C10.7228 43.7347 10.5734 43.8498 10.5008 43.9453C10.4275 44.0409 10.3226 44.1098 10.2012 44.1421C10.0797 44.1744 9.94796 44.1683 9.82476 44.1249C9.09424 43.8666 8.45587 43.5269 7.90966 43.1058C7.69696 42.941 7.55428 42.7025 7.51009 42.4378L7.28811 41.0898C7.27752 41.0302 7.25183 40.974 7.21344 40.9263C6.01271 39.4431 5.11469 38.4502 4.7131 36.8519C4.6566 34.8662 5.18734 33.4899 5.93401 31.3831C6.32349 30.2772 6.40825 29.5204 6.64234 28.2713C6.80176 27.4237 7.12868 26.2633 7.32645 25.7326C7.40448 25.5254 7.50471 24.9288 7.62713 23.9426C7.83499 22.2757 8.51103 20.7602 9.47363 19.4081C9.73597 19.0381 10.1201 18.691 10.6259 18.3668C11.5986 17.7432 12.4421 17.4506 13.7296 17.2771C14.8073 17.1331 15.8163 16.7988 16.7567 16.2741C16.9746 16.153 17.348 16.0945 17.6042 15.9533C18.2002 15.625 18.5292 15.0606 18.5911 14.2601C18.6859 13.013 18.6375 11.5903 18.0805 10.6075C17.9944 10.4555 17.8336 10.3216 17.5982 10.2059C17.2444 10.0324 16.9618 9.63751 16.7506 9.02134C16.5529 8.44419 16.6275 7.95986 16.9746 7.56837C16.9962 7.54423 17.0126 7.51597 17.0227 7.4854C17.0327 7.45483 17.0363 7.42261 17.0331 7.39078C17.0116 7.14458 16.9033 6.86609 16.7082 6.55532L16.7809 5.67142C17.0069 5.44809 17.1684 5.15212 17.2652 4.78349C17.3634 4.41621 17.4482 4.2023 17.5195 4.14176C18.0825 3.66147 18.4538 3.60698 18.5608 2.69685C18.5701 2.60817 18.602 2.52278 18.6536 2.44864C18.9987 1.94817 19.3902 1.91386 19.8846 1.73425C19.9608 1.70752 20.0405 1.69321 20.1207 1.69188C21.5616 1.66766 24.185 1.94009 25.0871 3.07019C25.107 3.09541 25.1208 3.12511 25.1274 3.15696L25.2687 3.78457C25.2762 3.81709 25.291 3.84736 25.312 3.87294C25.3331 3.89853 25.3597 3.91871 25.3898 3.93188C25.7692 4.1014 25.8156 4.55344 25.866 4.9187C25.8754 4.98437 25.8768 5.05012 25.8701 5.11445C25.788 5.85573 25.71 6.55733 25.636 7.21925C25.6198 7.35109 25.6279 7.43316 25.6602 7.46545C26.0517 7.85492 26.088 7.9982 25.9831 8.60967C25.8499 9.38997 25.5142 10.0102 24.9761 10.4703ZM8.65633 34.4081C8.48143 34.5346 8.36977 34.7303 8.32133 34.9953C8.22649 35.4938 8.50901 36.5109 8.58973 36.8418C8.99535 38.5107 10.297 38.9749 11.8206 39.1949C12.1381 39.2406 12.3809 39.3348 12.5491 39.4774C12.5601 39.487 12.5736 39.4933 12.5881 39.4955C12.6026 39.4976 12.6173 39.4956 12.6307 39.4897C12.6441 39.4838 12.6555 39.4741 12.6635 39.4619C12.6716 39.4497 12.676 39.4355 12.6762 39.4209C12.7126 38.0728 12.759 36.9488 12.8538 35.7239C12.948 34.4888 12.8471 33.204 12.5511 31.8694L11.9376 28.5054C11.9346 28.4886 11.9281 28.4727 11.9186 28.4586C11.909 28.4446 11.8966 28.4327 11.8821 28.4237C11.8677 28.4148 11.8515 28.409 11.8346 28.4067C11.8177 28.4044 11.8006 28.4057 11.7843 28.4105C11.7049 28.4347 11.6531 28.4845 11.6289 28.5599C11.1916 29.9254 10.7517 31.0508 10.3091 31.936C10.0763 32.4042 9.82207 32.8287 9.54627 33.2094C9.27048 33.5901 8.97383 33.9897 8.65633 34.4081Z" fill="white"></path><path d="M28.5246 34.1558L12.4147 43.6103C12.4618 42.8004 12.5399 42.0019 12.6488 41.2149C12.774 40.3108 12.8338 39.5877 12.8284 39.0455C12.819 38.1011 12.8715 36.8176 12.9858 35.1951C13.0101 34.8628 12.9751 34.1531 12.8809 33.0661C12.8325 32.5037 12.7047 31.8035 12.4975 30.9653C12.293 30.1393 12.141 29.3186 12.0414 28.5033C12.0339 28.4455 12.0069 28.3919 11.9648 28.3515C11.9227 28.3111 11.8681 28.2863 11.81 28.2811C11.7519 28.2759 11.6938 28.2907 11.6452 28.3231C11.5967 28.3554 11.5606 28.4033 11.543 28.4589C11.1864 29.6348 10.7257 30.8106 10.1606 31.9864C9.68436 32.9753 9.22627 33.4556 8.37063 34.5271C8.19573 34.7464 8.14595 35.078 8.22129 35.522C8.29798 35.9714 8.37466 36.3777 8.45135 36.7409C8.85293 38.6358 10.2514 39.0636 11.9224 39.328C12.139 39.363 12.2883 39.4121 12.3704 39.4753C12.4154 39.509 12.4489 39.5557 12.4663 39.6092C12.4837 39.6626 12.4841 39.7202 12.4675 39.7739C12.451 39.8276 12.4182 39.8748 12.3737 39.9092C12.3292 39.9435 12.2752 39.9633 12.219 39.9657L11.0243 40.0222C10.9522 40.0253 10.8831 40.0517 10.8273 40.0975C10.7715 40.1433 10.7321 40.206 10.715 40.2761C10.698 40.3462 10.7041 40.42 10.7326 40.4863C10.7611 40.5526 10.8104 40.6079 10.873 40.6438L11.8053 41.1826C11.8501 41.2086 11.8878 41.245 11.9152 41.2886C11.9427 41.3322 11.959 41.3817 11.9627 41.4328C12.0071 42.0402 11.8416 42.462 11.3856 42.9443C11.029 43.3197 10.6685 43.654 10.3039 43.9473C10.2412 43.9977 10.1667 44.0311 10.0874 44.0442C10.0082 44.0572 9.92707 44.0496 9.85186 44.0219C9.159 43.7677 8.53812 43.43 7.98922 43.0089C7.47664 42.6154 7.56342 41.8243 7.44435 41.2693C7.39529 41.0425 7.2929 40.8308 7.14568 40.6518C6.05595 39.322 4.83101 37.9416 4.80477 36.2061C4.80208 36.081 4.86195 35.6222 4.98438 34.8298C5.22654 33.2517 6.24363 31.3871 6.51404 29.6455C6.57055 29.2809 6.65329 28.8175 6.76226 28.2551C6.88334 27.6268 6.9977 27.1687 7.10532 26.8808C7.37439 26.1718 7.61656 24.9906 7.83181 23.3372C7.91388 22.7062 8.25224 21.8001 8.84688 20.6189C9.56933 19.1861 10.7055 18.2114 12.2553 17.6948C13.1412 17.4001 14.7173 17.3477 15.573 16.9521C16.2255 16.6494 16.6782 16.4503 16.9311 16.3548C17.8614 16.0017 18.5294 15.5476 18.6464 14.6435C18.8079 13.4125 18.826 11.451 18.0894 10.3976C17.9038 10.1332 17.6071 10.1494 17.4033 9.92539C16.9997 9.48142 16.7811 8.93319 16.7474 8.2807C16.7435 8.20177 16.7632 8.12314 16.804 8.05468C16.921 7.86095 16.9963 7.74794 17.03 7.71565C17.104 7.64614 17.1501 7.5469 17.1614 7.43271C17.1726 7.31852 17.1485 7.1955 17.0925 7.08199C16.8968 6.6804 16.6344 5.95391 17.0441 5.63103C17.0928 5.59281 17.1299 5.54102 17.1511 5.4817C17.2701 5.15881 17.3751 4.28299 17.8856 4.01257C18.3121 3.78655 18.563 3.42197 18.6383 2.9188C18.7493 2.17819 19.1812 2.09141 19.9198 1.84723C19.98 1.82715 20.0425 1.8156 20.1054 1.81293C21.4999 1.76046 23.8731 2.02482 24.9406 3.04796C24.9735 3.07956 24.9966 3.1202 25.0072 3.165L25.1888 3.92782C25.1959 3.95922 25.2123 3.98778 25.2361 4.00975C25.2599 4.03172 25.2898 4.04607 25.322 4.05092C25.3664 4.05764 25.3906 4.06101 25.3947 4.06101C25.4344 4.06886 25.4714 4.08738 25.5019 4.11468C25.5324 4.14198 25.5553 4.17709 25.5682 4.21639C25.7108 4.63883 25.7754 4.91127 25.762 5.0337C25.6826 5.75749 25.5992 6.54049 25.5117 7.38268C25.5068 7.42908 25.5137 7.47586 25.5317 7.51859C25.5497 7.56132 25.5783 7.59859 25.6147 7.62686C25.7196 7.70892 25.8037 7.80242 25.8669 7.90736C25.9092 7.98004 25.9308 8.06238 25.9295 8.14549C25.9133 8.89619 25.7135 9.47806 25.3301 9.89108C25.014 10.2301 24.8263 10.4857 24.7671 10.6579C24.4018 11.7376 24.2989 12.7748 24.2686 13.8565C24.2471 14.6032 24.5142 15.2294 25.0698 15.7353C25.8595 16.4497 26.7858 16.9569 27.8486 17.2569C28.0052 17.3007 28.1689 17.3076 28.3269 17.2771L29.5559 17.0349C29.5867 17.0282 29.6185 17.0248 29.6507 17.0248C30.5413 17.0369 31.4151 17.1748 32.2721 17.4385C32.3519 17.4625 32.4255 17.503 32.488 17.5576L33.9208 18.7845C33.9523 18.8118 33.9908 18.8299 34.0319 18.8368C34.073 18.8436 34.1153 18.8389 34.1539 18.8233C34.1925 18.8076 34.2261 18.7816 34.2509 18.748C34.2756 18.7145 34.2906 18.6747 34.2942 18.6332C34.5565 15.8463 34.942 13.4933 34.5626 10.8799C34.5047 10.4803 34.3635 10.0545 34.1388 9.6025C34.095 9.51229 34.03 9.43345 33.9491 9.37245C33.2024 8.81749 32.9946 8.32308 32.5688 7.16675C32.5647 7.15734 32.56 7.1479 32.5546 7.1385L31.8968 5.93172C31.8765 5.89426 31.8666 5.85209 31.868 5.80954C31.8694 5.76699 31.8821 5.72558 31.9048 5.68955C32.0784 5.42183 32.1349 5.12114 32.0744 4.7875C32.06 4.7074 32.0681 4.62384 32.0975 4.54729C32.127 4.47075 32.1765 4.40463 32.2398 4.35722C32.3032 4.30981 32.3776 4.28322 32.4537 4.28078C32.5298 4.27835 32.6042 4.30018 32.6677 4.34353C32.6744 4.34891 32.7255 4.40542 32.821 4.51304C32.8329 4.52637 32.8484 4.53599 32.8656 4.54075C32.8828 4.54551 32.901 4.54521 32.918 4.53989C32.935 4.53457 32.9502 4.52444 32.9616 4.51073C32.9731 4.49702 32.9803 4.48031 32.9825 4.46259C33.0053 4.27155 33.076 4.13164 33.1944 4.04284C33.2517 3.99984 33.3227 3.97905 33.3941 3.98432C34.3063 4.05899 35.0025 4.63211 35.8481 4.58973C35.9124 4.58579 35.9765 4.602 36.0317 4.63614C36.5665 4.97315 36.5867 5.26375 36.4676 5.8853C36.2402 7.06517 36.1716 8.09706 36.2618 8.98095C36.2833 9.18006 36.4023 9.40743 36.6189 9.66304C36.6907 9.74784 36.7313 9.85467 36.734 9.96575C36.777 11.5519 36.9216 12.8091 37.1678 13.7374C37.638 15.5032 38.0618 16.9421 38.2535 18.611C38.306 19.0711 38.2932 19.5985 38.2152 20.1931C38.1479 20.7057 38.1412 21.4268 38.195 22.3564C38.2596 23.4381 38.1567 24.0677 37.6017 24.9657C37.3448 25.3801 36.9734 25.5664 36.4878 25.5247C34.7886 25.3821 33.2199 24.9785 31.7817 24.3139C31.7539 24.301 31.7221 24.2996 31.693 24.3102C31.664 24.3208 31.64 24.3424 31.6263 24.3704C31.253 25.1695 30.5003 26.3804 30.135 27.4297C29.8101 28.3641 29.6487 29.1269 29.4993 30.1823C29.4536 30.5079 29.3594 30.9256 29.2168 31.4355C28.9666 32.3208 28.7359 33.2275 28.5246 34.1558Z" fill="white"></path><path d="M4.71176 36.8523L0.00976562 39.2557L0.0117833 20.4538C4.3909 17.7375 8.35363 14.7085 11.9 11.3666C13.2453 10.098 14.8476 8.49431 16.7069 6.55566C16.902 6.86644 17.0103 7.14493 17.0318 7.39113C17.035 7.42295 17.0314 7.45518 17.0213 7.48575C17.0112 7.51632 16.9949 7.54457 16.9733 7.56871C16.6262 7.96021 16.5515 8.44454 16.7493 9.02169C16.9605 9.63786 17.243 10.0327 17.5969 10.2063C17.8323 10.322 17.9931 10.4558 18.0792 10.6079C18.6361 11.5906 18.6846 13.0133 18.5897 14.2605C18.5278 15.061 18.1989 15.6253 17.6029 15.9536C17.3466 16.0949 16.9733 16.1534 16.7553 16.2745C15.8149 16.7992 14.8059 17.1335 13.7283 17.2774C12.4408 17.451 11.5973 17.7436 10.6246 18.3672C10.1187 18.6914 9.73463 19.0385 9.47229 19.4085C8.50969 20.7605 7.83365 22.2761 7.62579 23.943C7.50337 24.9291 7.40314 25.5258 7.32511 25.733C7.12734 26.2637 6.80042 27.4241 6.641 28.2716C6.4069 29.5208 6.32215 30.2775 5.93267 31.3834C5.186 33.4902 4.65526 34.8665 4.71176 36.8523Z" fill="#2BAAE2"></path><path d="M31.2641 14.1593L29.0039 17.0087C27.7178 17.3101 26.402 16.8217 25.0567 15.5437C24.6073 15.1158 24.3867 14.6026 24.3947 14.0039C24.4055 13.1361 24.4613 12.4056 24.5622 11.8123C24.6214 11.4558 24.76 11.0085 24.978 10.4703L31.2641 14.1593Z" fill="#2BAAE2"></path><path d="M34.4264 16.016L34.1742 18.5688C34.1718 18.5899 34.1639 18.61 34.1512 18.627C34.1385 18.644 34.1216 18.6573 34.102 18.6655C34.0825 18.6737 34.0611 18.6766 34.0401 18.6738C34.019 18.671 33.9991 18.6626 33.9824 18.6495L32.4043 17.3842C32.3669 17.3548 32.3254 17.3317 32.2812 17.3156C31.2588 16.9658 30.1657 16.8636 29.002 17.0089L31.2621 14.1594L34.4264 16.016Z" fill="#0971B7"></path><path d="M38.3885 18.3345C40.0554 19.3394 40.9952 20.7265 41.2077 22.4956C41.5252 25.1379 40.5176 27.1344 38.1847 28.4851C35.0904 30.2758 31.941 32.1102 28.7363 33.9883C28.8534 33.2618 29.0088 32.5589 29.2025 31.8795C29.4151 31.1314 29.5429 30.6162 29.5859 30.3336C29.6384 29.9852 29.6922 29.6354 29.7474 29.2843C30.0258 27.5104 30.9158 26.0514 31.6604 24.5359C31.6734 24.5086 31.6967 24.4875 31.7252 24.477C31.7538 24.4664 31.7856 24.4673 31.8138 24.4794C33.3421 25.1278 34.894 25.5139 36.4694 25.6377C37.0614 25.6848 37.508 25.4285 37.8094 24.8688C38.1188 24.2903 38.2776 23.8154 38.2856 23.4441C38.2964 22.8858 38.2883 22.1257 38.2614 21.1637C38.2432 20.5321 38.3643 20.0074 38.4168 19.3294C38.4208 19.2771 38.4188 19.2242 38.4107 19.172C38.369 18.9123 38.3616 18.6331 38.3885 18.3345Z" fill="#0971B7"></path><path d="M12.5491 31.8696L8.6543 34.4083C8.9718 33.9899 9.26845 33.5903 9.54425 33.2095C9.82004 32.8288 10.0743 32.4044 10.3071 31.9362C10.7497 31.0509 11.1896 29.9256 11.6268 28.56C11.6511 28.4847 11.7029 28.4349 11.7822 28.4107C11.7986 28.4059 11.8157 28.4046 11.8326 28.4068C11.8494 28.4091 11.8656 28.4149 11.8801 28.4239C11.8946 28.4328 11.907 28.4447 11.9166 28.4588C11.9261 28.4729 11.9326 28.4888 11.9356 28.5055L12.5491 31.8696Z" fill="#2BAAE2"></path><path d="M12.5498 31.8696C12.8458 33.2042 12.9467 34.489 12.8525 35.7241C12.7577 36.949 12.7112 38.073 12.6749 39.4211C12.6747 39.4357 12.6703 39.4499 12.6622 39.4621C12.6541 39.4743 12.6427 39.484 12.6294 39.4899C12.616 39.4959 12.6012 39.4978 12.5868 39.4957C12.5723 39.4935 12.5588 39.4872 12.5478 39.4776C12.3796 39.335 12.1368 39.2408 11.8193 39.1951C10.2957 38.9751 8.99404 38.5109 8.58842 36.842C8.50769 36.5111 8.22517 35.494 8.32002 34.9956C8.36845 34.7305 8.48012 34.5348 8.65501 34.4083L12.5498 31.8696Z" fill="#0971B7"></path><path d="M12.2528 43.675C11.3003 44.24 10.3256 44.8138 9.32869 45.3964C8.16228 46.0785 7.28309 46.478 6.69113 46.5951C5.70365 46.7915 4.74441 46.7128 3.81343 46.359C1.28283 45.3984 -0.0490686 43.3481 0.00138207 40.654C0.0107995 40.1603 0.0134904 39.6941 0.00945435 39.2555L4.71145 36.8521C5.11304 38.4503 6.01106 39.4432 7.21179 40.9264C7.25018 40.9741 7.27587 41.0303 7.28645 41.0899L7.50844 42.4379C7.55263 42.7026 7.69531 42.9412 7.90801 43.1059C8.45422 43.527 9.09259 43.8667 9.82311 44.125C9.9463 44.1685 10.0781 44.1745 10.1995 44.1422C10.321 44.1099 10.4259 44.0411 10.4991 43.9454C10.5718 43.8499 10.7211 43.7349 10.9472 43.6003C11.0264 43.5541 11.0913 43.4871 11.1348 43.4066C11.3346 43.0474 11.7423 42.8779 11.8734 42.4965C11.9985 42.1359 12.0665 41.8023 12.0772 41.4955C12.0809 41.3852 12.0516 41.2763 11.993 41.1825C11.9344 41.0887 11.8493 41.0143 11.7483 40.9688C11.6905 40.9419 11.4194 40.8208 10.935 40.6056C10.9031 40.5916 10.8743 40.5712 10.8508 40.5457C10.8273 40.5203 10.8097 40.4905 10.7992 40.4586C10.7888 40.4267 10.7858 40.3934 10.7904 40.3612C10.7951 40.329 10.8072 40.2988 10.8261 40.2726C10.8866 40.1892 10.9956 40.1408 11.153 40.1273C11.3225 40.1139 11.6588 40.1031 12.162 40.095C12.3517 40.0923 12.4795 40.017 12.5454 39.869C12.5538 39.8498 12.5689 39.8343 12.5878 39.8254C12.6067 39.8164 12.6282 39.8146 12.6483 39.8203C12.6685 39.8259 12.6859 39.8387 12.6974 39.8561C12.7089 39.8736 12.7137 39.8947 12.7109 39.9154L12.2528 43.675Z" fill="#0971B7"></path></svg>