<svg xmlns="http://www.w3.org/2000/svg" width="16" height="16" viewBox="0 0 16 16" fill="none"><path d="M12.0465 9.47088C11.9478 9.41538 11.836 9.35244 11.7013 9.27137C11.6261 9.22595 11.5315 9.16387 11.4313 9.09813C10.9171 8.7606 10.5275 8.5217 10.1958 8.5217C10.1181 8.5217 10.0446 8.53485 9.97762 8.5607C9.68703 8.6726 9.4484 8.97156 9.21764 9.26063C9.13306 9.36653 9.01201 9.51817 8.93857 9.58593C8.6472 9.53296 8.03266 9.15227 7.36952 8.48912C6.70559 7.8252 6.32482 7.20996 6.27255 6.91929C6.34023 6.84558 6.49304 6.72363 6.59961 6.63851C6.88759 6.4086 7.18538 6.17087 7.2979 5.88117C7.44144 5.50897 7.17837 5.06382 6.76055 4.42729C6.69481 4.32711 6.63269 4.23249 6.58762 4.15788C6.50623 4.02263 6.44334 3.91073 6.38783 3.8121C6.16003 3.40723 6.00952 3.13965 5.44394 3.13965C5.07687 3.13965 4.55789 3.48652 4.20635 3.83051C3.69547 4.33053 3.41406 4.90782 3.41406 5.45716C3.41504 6.94919 4.24773 8.65925 5.69865 10.1506C5.70114 10.1531 5.70363 10.1537 5.7062 10.1562C7.19752 11.6072 8.90852 12.437 10.4005 12.437H10.4011C10.9497 12.437 11.5272 12.1589 12.0272 11.6482C12.3714 11.2967 12.7188 10.7815 12.7188 10.4147C12.7188 9.8492 12.4514 9.69873 12.0465 9.47088ZM10.4007 11.6662C9.12979 11.6652 7.5795 10.8951 6.25289 9.60586C4.96353 8.2791 4.19335 6.72869 4.19254 5.45794C4.19254 4.68928 5.19002 3.95844 5.45087 3.91839C5.50416 3.91863 5.5321 3.92178 5.54541 3.92404C5.5799 3.96374 5.64844 4.08556 5.70947 4.19404C5.7647 4.2922 5.83347 4.41441 5.92105 4.55994C5.97398 4.64763 6.03999 4.74816 6.10986 4.85458C6.24207 5.05604 6.50787 5.46098 6.55267 5.63383C6.47774 5.73989 6.24526 5.92547 6.11402 6.03024C5.77809 6.29845 5.48797 6.53004 5.48797 6.85733C5.48878 7.64791 6.50709 8.72759 6.81916 9.03967C7.13124 9.35174 8.21093 10.3701 9.00318 10.3708C9.32837 10.3698 9.55898 10.0809 9.82606 9.74633C9.93138 9.61442 10.1181 9.38055 10.2246 9.30601C10.3972 9.3505 10.8027 9.6166 11.0043 9.74898C11.1107 9.8188 11.2112 9.88477 11.2994 9.93806C11.4445 10.0253 11.5666 10.0941 11.6648 10.1493C11.7733 10.2104 11.8951 10.2789 11.9348 10.3134C11.9371 10.3267 11.9402 10.3546 11.9405 10.4079C11.9001 10.6685 11.1691 11.6652 10.4007 11.6662Z" fill="#192950"></path><path d="M15.8047 7.97458C15.7774 5.87122 14.9331 3.88364 13.4275 2.37796C11.8941 0.844523 9.86993 0 7.72791 0C5.6602 0 3.72587 0.795637 2.28118 2.24029C0.999175 3.52229 0.212645 5.23212 0.0663389 7.05486C-0.0724168 8.78423 0.367826 10.5343 1.3079 12.0058L0.0241867 15.4757C-0.0296809 15.6214 0.0081511 15.7851 0.120518 15.8923C0.194352 15.9628 0.291073 16 0.389311 16C0.440532 16 0.49222 15.9852 0.541222 15.9643L3.88456 14.5416C5.16087 15.336 6.62028 15.7454 8.11884 15.7454H8.119C10.1864 15.7454 12.1207 14.9593 13.5652 13.5148C15.0367 12.0432 15.8321 10.0817 15.8047 7.97458ZM13.0146 12.9738C11.7171 14.2714 9.97836 14.9859 8.1188 14.9859C6.70311 14.9859 5.32575 14.5715 4.1356 13.7875C4.07107 13.745 3.99649 13.7234 3.92149 13.7234C3.87 13.7234 3.81831 13.7336 3.76954 13.7543L1.06698 14.9005L2.10618 12.0915C2.14966 11.9739 2.13386 11.8426 2.06376 11.7387C0.15364 8.90894 0.476573 5.14576 2.83161 2.79076C4.12926 1.49311 5.86812 0.778434 7.72791 0.778434C9.66197 0.778434 11.4906 1.54196 12.877 2.92839C14.2384 4.28971 15.0017 6.0854 15.0264 7.9847C15.051 9.88011 14.3365 11.6519 13.0146 12.9738Z" fill="#192950"></path></svg>