<svg xmlns="http://www.w3.org/2000/svg" width="165" height="39" viewBox="0 0 165 39" fill="none"><path d="M13.9064 4.69996L13.8462 5.43243C12.3055 7.03898 10.9776 8.36793 9.86276 9.41926C6.92393 12.1886 3.64003 14.6988 0.0110854 16.9497C0.00551103 13.1268 0.00439607 9.3507 0.00774072 5.62141C0.00774072 4.43071 0.08634 3.60904 0.243539 3.1564C1.02284 0.915482 3.4243 -0.390606 5.67191 0.104403C6.13905 0.208087 7.10677 0.694734 8.57507 1.56434C10.341 2.61122 12.1182 3.65642 13.9064 4.69996Z" fill="#6EC6D8"></path><path d="M20.6976 8.67674C20.517 9.12269 20.4021 9.49339 20.3531 9.78884C20.2695 10.2805 20.2232 10.8859 20.2143 11.605C20.2076 12.1011 20.3904 12.5264 20.7628 12.881C21.8777 13.9401 22.9681 14.3448 24.0339 14.0951C24.9983 13.9747 25.9041 14.0594 26.7514 14.3493C26.788 14.3626 26.8224 14.3818 26.8534 14.4061L28.1612 15.4547C28.175 15.4655 28.1915 15.4724 28.2089 15.4748C28.2263 15.4771 28.2441 15.4747 28.2603 15.4679C28.2765 15.4611 28.2905 15.4501 28.3011 15.436C28.3116 15.4219 28.3181 15.4053 28.3201 15.3878L28.5291 13.2723C28.7487 11.8229 28.7549 10.4043 28.5475 9.01622C28.5051 8.7375 28.397 8.41195 28.2231 8.03958C28.1815 7.94993 28.1155 7.87347 28.0324 7.81884C27.6467 7.55795 27.3601 7.17778 27.1728 6.67831C26.9543 6.09411 26.675 5.52329 26.335 4.96585C26.3067 4.91914 26.2924 4.86537 26.2939 4.81105C26.2953 4.75673 26.3125 4.7042 26.3434 4.65981C26.4783 4.46359 26.5312 4.28911 26.5022 4.13637C26.4632 3.93346 26.4666 3.78686 26.5123 3.69655C26.5976 3.52597 26.8718 3.35874 27.0625 3.48918C27.0959 3.51148 27.1305 3.52653 27.1661 3.53434C27.1923 3.54006 27.2196 3.53655 27.2437 3.52438C27.2677 3.51221 27.287 3.49211 27.2983 3.46744C27.4939 3.03765 27.9822 3.25673 28.3217 3.34871C28.7047 3.45239 29.0358 3.68317 29.4071 3.68652C29.7081 3.68986 29.9166 3.73947 30.0325 3.83535C30.3302 4.08063 30.4361 4.36883 30.3503 4.69995C30.1841 5.34324 30.1016 6.16881 30.1028 7.17666C30.1028 7.49217 30.217 7.73912 30.4456 7.9175C30.4746 7.94036 30.4979 7.96951 30.5136 8.00261C30.5292 8.03571 30.5369 8.07185 30.5359 8.10815C30.518 8.74029 30.5693 9.48224 30.6897 10.334C30.7455 10.7253 30.9172 11.455 31.2048 12.5231C31.4467 13.4217 31.6497 14.3119 31.8135 15.1938C31.7912 15.4413 31.7974 15.6726 31.8319 15.8878C31.8386 15.9311 31.8403 15.9749 31.837 16.0183C31.7935 16.5802 31.6931 17.015 31.7082 17.5384C31.7305 18.3355 31.7372 18.9654 31.7283 19.4281C31.7216 19.7358 31.59 20.1294 31.3336 20.6088C31.0839 21.0726 30.7137 21.285 30.2232 21.2459C28.9176 21.1434 27.6316 20.8234 26.3651 20.286C26.3417 20.276 26.3154 20.2753 26.2917 20.2841C26.268 20.2928 26.2488 20.3103 26.238 20.3329C25.6209 21.5888 24.8834 22.7979 24.6526 24.2678C24.6069 24.5588 24.5623 24.8487 24.5189 25.1374C24.4832 25.3716 24.3773 25.7986 24.2011 26.4184C24.0406 26.9815 23.9118 27.564 23.8148 28.166C23.8817 28.1348 23.8226 28.1811 23.6375 28.3048C23.8126 27.5356 24.0038 26.7841 24.2111 26.0505C24.3293 25.628 24.4074 25.2818 24.4453 25.012C24.569 24.1374 24.7028 23.5053 24.9721 22.731C25.2747 21.8614 25.8985 20.858 26.2079 20.1957C26.2192 20.1725 26.2391 20.1546 26.2632 20.1458C26.2873 20.1371 26.3136 20.1382 26.3367 20.1489C27.5285 20.6997 28.8284 21.0341 30.2365 21.1523C30.639 21.1869 30.9467 21.0324 31.1597 20.6891C31.6196 19.9449 31.7048 19.4231 31.6513 18.5267C31.6067 17.7564 31.6123 17.1588 31.6681 16.734C31.7327 16.2412 31.7433 15.8042 31.6998 15.4229C31.541 14.0399 31.1898 12.8475 30.8001 11.3842C30.5961 10.615 30.4762 9.57311 30.4406 8.25866C30.4384 8.16661 30.4047 8.07808 30.3452 8.00781C30.1657 7.79598 30.0671 7.60757 30.0492 7.44256C29.9745 6.71008 30.0314 5.85497 30.2198 4.87721C30.3185 4.36214 30.3018 4.12132 29.8586 3.84204C29.8129 3.81375 29.7597 3.80031 29.7064 3.80358C29.0057 3.8387 28.4288 3.36376 27.6729 3.30188C27.6136 3.29752 27.5548 3.31474 27.5073 3.35038C27.4092 3.42396 27.3507 3.53991 27.3317 3.69822C27.3299 3.71291 27.3239 3.72676 27.3144 3.73812C27.305 3.74948 27.2924 3.75787 27.2783 3.76228C27.2642 3.76669 27.2491 3.76694 27.2348 3.76299C27.2206 3.75905 27.2078 3.75108 27.1979 3.74003C27.1188 3.65084 27.0764 3.60402 27.0708 3.59956C27.0183 3.56363 26.9566 3.54554 26.8935 3.54756C26.8304 3.54958 26.7688 3.57161 26.7163 3.6109C26.6638 3.65019 26.6228 3.70498 26.5984 3.76842C26.574 3.83185 26.5673 3.90109 26.5792 3.96747C26.6293 4.24396 26.5825 4.49314 26.4387 4.715C26.4199 4.74485 26.4094 4.77917 26.4082 4.81443C26.407 4.8497 26.4152 4.88464 26.432 4.91568L26.9772 5.91573C26.9816 5.92352 26.9855 5.93134 26.9889 5.93914C27.3417 6.89738 27.514 7.3071 28.1328 7.76699C28.1998 7.81754 28.2537 7.88288 28.29 7.95764C28.4761 8.33224 28.5932 8.6851 28.6411 9.01622C28.9555 11.1819 28.6361 13.1318 28.4187 15.4413C28.4158 15.4757 28.4033 15.5087 28.3828 15.5365C28.3623 15.5643 28.3345 15.5859 28.3025 15.5988C28.2705 15.6118 28.2355 15.6157 28.2014 15.61C28.1673 15.6044 28.1354 15.5894 28.1093 15.5667L26.922 14.55C26.8702 14.5048 26.8092 14.4711 26.743 14.4513C26.0329 14.2328 25.3088 14.1185 24.5707 14.1085C24.544 14.1085 24.5177 14.1113 24.4921 14.1168L23.4737 14.3175C23.3427 14.3428 23.2071 14.3371 23.0773 14.3008C22.1966 14.0522 21.429 13.6318 20.7745 13.0398C20.3141 12.6206 20.0928 12.1017 20.1106 11.4829C20.1357 10.5865 20.221 9.72696 20.5237 8.83227C20.5727 8.68956 20.7282 8.47773 20.9902 8.19678C21.308 7.85451 21.4735 7.37232 21.4869 6.75022C21.488 6.68134 21.4701 6.61311 21.4351 6.55289C21.3827 6.46592 21.313 6.38844 21.226 6.32043C21.1959 6.297 21.1722 6.26612 21.1573 6.23071C21.1424 6.1953 21.1367 6.15654 21.1408 6.11808C21.2132 5.42016 21.2823 4.7713 21.3481 4.17149C21.3593 4.07004 21.3058 3.84427 21.1876 3.4942C21.1768 3.46162 21.1578 3.43254 21.1326 3.40991C21.1073 3.38729 21.0767 3.37194 21.0438 3.36543C21.0404 3.36543 21.0203 3.36264 20.9836 3.35707C20.9569 3.35306 20.9321 3.34117 20.9124 3.32296C20.8927 3.30475 20.879 3.28108 20.8732 3.25506L20.7227 2.62292C20.7139 2.58579 20.6947 2.55211 20.6675 2.52592C19.7828 1.67805 17.8162 1.45898 16.6606 1.50246C16.6084 1.50468 16.5567 1.51425 16.5067 1.53089C15.8947 1.73324 15.5368 1.80515 15.4448 2.41889C15.3824 2.83586 15.1745 3.13799 14.821 3.32529C14.3979 3.54939 14.311 4.27518 14.2123 4.54275C14.1948 4.59191 14.1641 4.63482 14.1237 4.6665C13.7842 4.93407 14.0016 5.53611 14.1638 5.8689C14.2102 5.96297 14.2302 6.06492 14.2209 6.15954C14.2115 6.25417 14.1733 6.33642 14.112 6.39401C14.0841 6.42077 14.0217 6.51442 13.9247 6.67496C13.8909 6.7317 13.8746 6.79686 13.8778 6.86227C13.9057 7.40298 14.0869 7.8573 14.4213 8.22521C14.5903 8.41084 14.8361 8.39746 14.9899 8.61654C15.6003 9.48949 15.5853 11.115 15.4515 12.1351C15.3545 12.8843 14.801 13.2606 14.03 13.5532C13.8204 13.6324 13.4453 13.7974 12.9045 14.0483C12.1955 14.376 10.8894 14.4195 10.1552 14.6637C8.8709 15.0918 7.92938 15.8995 7.33068 17.0869C6.8379 18.0657 6.55751 18.8166 6.4895 19.3395C6.31112 20.7097 6.11044 21.6886 5.88746 22.2761C5.79827 22.5147 5.70351 22.8943 5.60317 23.4149C5.51286 23.881 5.4443 24.265 5.39747 24.5672C5.17338 26.0104 4.33053 27.5556 4.12985 28.8634C4.0284 29.5201 3.97878 29.9002 3.98101 30.0039C4.00275 31.4421 5.01786 32.586 5.92091 33.688C6.04291 33.8364 6.12776 34.0118 6.16842 34.1998C6.26708 34.6597 6.19517 35.3152 6.61994 35.6413C7.07482 35.9903 7.58934 36.2701 8.1635 36.4808C8.22583 36.5037 8.29309 36.5101 8.35873 36.4992C8.42438 36.4884 8.48617 36.4607 8.5381 36.419C8.84024 36.1759 9.13903 35.8989 9.43447 35.5878C9.81242 35.1881 9.94955 34.8386 9.91276 34.3352C9.90964 34.2929 9.89613 34.2519 9.8734 34.2157C9.85067 34.1796 9.81941 34.1494 9.78231 34.1279L9.0097 33.6814C8.95781 33.6516 8.91699 33.6058 8.89339 33.5509C8.86978 33.4959 8.86467 33.4348 8.87882 33.3767C8.89297 33.3186 8.92562 33.2666 8.97184 33.2287C9.01807 33.1907 9.07537 33.1688 9.13512 33.1663L10.1251 33.1195C10.1717 33.1174 10.2165 33.1011 10.2533 33.0726C10.2902 33.0442 10.3174 33.005 10.3311 32.9605C10.3448 32.916 10.3445 32.8683 10.3301 32.824C10.3156 32.7797 10.2879 32.741 10.2506 32.7131C10.1826 32.6607 10.0588 32.62 9.87931 32.591C8.49462 32.3719 7.3357 32.0174 7.00291 30.4471C6.93936 30.1461 6.87581 29.8094 6.81226 29.437C6.74983 29.0691 6.79108 28.7943 6.93601 28.6125C7.64508 27.7245 8.0247 27.3265 8.41937 26.5071C8.88762 25.5327 9.26947 24.5583 9.56491 23.5839C9.57952 23.5378 9.60941 23.4981 9.64965 23.4713C9.68989 23.4445 9.73806 23.4322 9.78621 23.4365C9.83436 23.4408 9.8796 23.4614 9.91447 23.4949C9.94934 23.5283 9.97174 23.5727 9.97798 23.6206C10.0605 24.2963 10.1865 24.9763 10.3559 25.6609C10.5276 26.3555 10.6335 26.9358 10.6737 27.4018C10.7517 28.3026 10.7807 28.8907 10.7606 29.1661C10.6659 30.5106 10.6224 31.5742 10.6302 32.3569C10.6346 32.8062 10.585 33.4054 10.4813 34.1546C10.391 34.8068 10.3264 35.4685 10.2874 36.1397L10.1552 36.1932L10.5349 33.0777C10.5372 33.0605 10.5332 33.043 10.5237 33.0285C10.5142 33.014 10.4997 33.0035 10.483 32.9988C10.4663 32.9941 10.4485 32.9956 10.4328 33.0031C10.4172 33.0105 10.4047 33.0233 10.3977 33.0392C10.3431 33.1618 10.2372 33.2243 10.08 33.2265C9.66302 33.2332 9.3843 33.2421 9.24382 33.2532C9.11338 33.2644 9.02308 33.3045 8.97291 33.3737C8.9573 33.3953 8.94721 33.4204 8.94336 33.4471C8.93951 33.4738 8.94201 33.5013 8.95067 33.5278C8.95932 33.5543 8.97393 33.5789 8.9934 33.6C9.01287 33.6211 9.03673 33.638 9.06321 33.6496C9.46457 33.828 9.68922 33.9283 9.73716 33.9506C9.82083 33.9883 9.8914 34.05 9.93994 34.1277C9.98847 34.2054 10.0128 34.2957 10.0098 34.3871C10.0008 34.6413 9.94453 34.9178 9.84084 35.2166C9.73214 35.5326 9.39433 35.6731 9.22877 35.9708C9.19269 36.0375 9.13889 36.093 9.07325 36.1313C8.88595 36.2428 8.76219 36.3381 8.70199 36.4173C8.64126 36.4965 8.55434 36.5536 8.45369 36.5804C8.35305 36.6071 8.24385 36.6021 8.14176 36.5661C7.53638 36.3521 7.00737 36.0706 6.55472 35.7216C6.37846 35.5851 6.26022 35.3874 6.2236 35.1681L6.03965 34.0509C6.03087 34.0016 6.00959 33.955 5.97777 33.9155C4.98274 32.6863 4.23855 31.8635 3.90576 30.5391C3.85893 28.8935 4.29876 27.753 4.91752 26.0071C5.24028 25.0906 5.31051 24.4635 5.5045 23.4283C5.63662 22.726 5.90753 21.7644 6.07142 21.3245C6.13608 21.1529 6.21914 20.6584 6.3206 19.8412C6.49285 18.4598 7.05308 17.2039 7.85078 16.0835C8.06818 15.7769 8.38648 15.4892 8.80568 15.2206C9.61174 14.7038 10.3108 14.4613 11.3777 14.3175C12.2707 14.1982 13.1069 13.9212 13.8862 13.4864C14.0668 13.386 14.3762 13.3375 14.5886 13.2205C15.0825 12.9484 15.3551 12.4807 15.4063 11.8174C15.4849 10.7839 15.4448 9.60488 14.9832 8.79046C14.9119 8.66448 14.7787 8.55354 14.5836 8.45766C14.2903 8.31384 14.0562 7.98663 13.8812 7.47601C13.7173 6.99772 13.7792 6.59637 14.0668 6.27193C14.0847 6.25193 14.0983 6.22852 14.1066 6.20318C14.115 6.17785 14.1179 6.15114 14.1153 6.12477C14.0975 5.92075 14.0077 5.68996 13.8461 5.43243L13.9063 4.69995C14.0936 4.51488 14.2274 4.2696 14.3076 3.96412C14.389 3.65976 14.4593 3.48249 14.5183 3.43232C14.9849 3.03431 15.2926 2.98916 15.3813 2.23494C15.389 2.16144 15.4154 2.09068 15.4582 2.02924C15.7442 1.61451 16.0686 1.58608 16.4783 1.43724C16.5415 1.41508 16.6075 1.40322 16.674 1.40212C17.868 1.38205 20.042 1.60782 20.7896 2.54432C20.8061 2.56522 20.8175 2.58983 20.823 2.61623L20.9401 3.13632C20.9463 3.16328 20.9585 3.18836 20.976 3.20956C20.9934 3.23076 21.0155 3.24749 21.0404 3.2584C21.3548 3.39888 21.3933 3.77348 21.4351 4.07617C21.4429 4.13059 21.444 4.18508 21.4384 4.23838C21.3704 4.85269 21.3058 5.4341 21.2444 5.98262C21.2311 6.09188 21.2378 6.15989 21.2645 6.18665C21.5889 6.5094 21.619 6.62814 21.5321 7.13485C21.4217 7.78149 21.1435 8.29545 20.6976 8.67674ZM7.17348 28.5139C7.02855 28.6187 6.93601 28.7809 6.89588 29.0005C6.81728 29.4136 7.0514 30.2564 7.1183 30.5307C7.45443 31.9137 8.53309 32.2983 9.79569 32.4806C10.0588 32.5185 10.26 32.5966 10.3994 32.7148C10.4085 32.7227 10.4197 32.7279 10.4317 32.7297C10.4437 32.7316 10.456 32.7299 10.467 32.725C10.4781 32.7201 10.4875 32.7121 10.4942 32.702C10.5009 32.6919 10.5046 32.68 10.5048 32.6679C10.5349 31.5508 10.5733 30.6193 10.6519 29.6042C10.73 28.5808 10.6463 27.5161 10.4011 26.4101L9.89269 23.6223C9.89021 23.6084 9.88483 23.5952 9.8769 23.5836C9.86898 23.5719 9.85868 23.5621 9.84669 23.5546C9.8347 23.5472 9.82128 23.5424 9.8073 23.5405C9.79333 23.5387 9.77912 23.5397 9.76559 23.5437C9.69981 23.5638 9.65689 23.605 9.63682 23.6675C9.27448 24.7991 8.90992 25.7317 8.54312 26.4653C8.35025 26.8533 8.13953 27.205 7.91098 27.5205C7.68243 27.836 7.4366 28.1671 7.17348 28.5139Z" fill="white"></path><path d="M23.6371 28.3048L10.2869 36.1397C10.3259 35.4685 10.3906 34.8068 10.4809 34.1546C10.5846 33.4054 10.6342 32.8062 10.6297 32.3569C10.6219 31.5742 10.6654 30.5106 10.7602 29.1661C10.7802 28.8907 10.7512 28.3026 10.6732 27.4018C10.6331 26.9358 10.5271 26.3555 10.3554 25.6609C10.186 24.9764 10.06 24.2963 9.9775 23.6207C9.97127 23.5727 9.94887 23.5283 9.914 23.4949C9.87913 23.4614 9.83389 23.4408 9.78574 23.4365C9.73759 23.4322 9.68941 23.4445 9.64918 23.4713C9.60894 23.4981 9.57905 23.5378 9.56444 23.5839C9.269 24.5583 8.88715 25.5327 8.4189 26.5071C8.02423 27.3265 7.64461 27.7245 6.93554 28.6125C6.79061 28.7943 6.74936 29.0691 6.81179 29.437C6.87534 29.8094 6.93889 30.1461 7.00243 30.4471C7.33523 32.0174 8.49415 32.3719 9.87884 32.591C10.0583 32.62 10.1821 32.6607 10.2501 32.7131C10.2874 32.741 10.3152 32.7797 10.3296 32.824C10.344 32.8683 10.3444 32.916 10.3306 32.9605C10.3169 33.005 10.2897 33.0442 10.2529 33.0726C10.216 33.1011 10.1712 33.1175 10.1247 33.1195L9.13465 33.1663C9.0749 33.1688 9.0176 33.1907 8.97137 33.2287C8.92514 33.2666 8.8925 33.3186 8.87835 33.3767C8.8642 33.4348 8.86931 33.4959 8.89292 33.5509C8.91652 33.6058 8.95734 33.6516 9.00923 33.6814L9.78184 34.1279C9.81894 34.1494 9.8502 34.1796 9.87293 34.2157C9.89566 34.2519 9.90917 34.2929 9.91228 34.3352C9.94907 34.8386 9.81194 35.1881 9.434 35.5878C9.13855 35.8989 8.83976 36.1759 8.53763 36.419C8.4857 36.4608 8.42391 36.4884 8.35826 36.4993C8.29262 36.5101 8.22536 36.5038 8.16303 36.4808C7.58886 36.2701 7.07435 35.9903 6.61947 35.6413C6.1947 35.3152 6.26661 34.6597 6.16794 34.1998C6.12729 34.0118 6.04244 33.8364 5.92044 33.6881C5.01738 32.586 4.00228 31.4421 3.98054 30.0039C3.97831 29.9002 4.02792 29.5201 4.12938 28.8634C4.33006 27.5556 5.17291 26.0104 5.397 24.5672C5.44383 24.2651 5.51239 23.881 5.6027 23.415C5.70304 22.8943 5.7978 22.5147 5.88699 22.2761C6.10997 21.6886 6.31065 20.7097 6.48903 19.3395C6.55704 18.8166 6.83743 18.0657 7.33021 17.0869C7.9289 15.8995 8.87042 15.0918 10.1548 14.6637C10.8889 14.4195 12.195 14.376 12.9041 14.0483C13.4448 13.7974 13.82 13.6324 14.0296 13.5532C14.8005 13.2606 15.354 12.8843 15.451 12.1351C15.5848 11.115 15.5999 9.48949 14.9895 8.61654C14.8356 8.39746 14.5898 8.41084 14.4209 8.22521C14.0864 7.8573 13.9052 7.40299 13.8774 6.86227C13.8741 6.79686 13.8904 6.7317 13.9242 6.67497C14.0212 6.51442 14.0836 6.42077 14.1115 6.39402C14.1728 6.33642 14.211 6.25418 14.2204 6.15955C14.2297 6.06492 14.2097 5.96297 14.1633 5.86891C14.0011 5.53611 13.7837 4.93408 14.1232 4.6665C14.1636 4.63483 14.1943 4.59191 14.2118 4.54275C14.3105 4.27518 14.3975 3.54939 14.8206 3.3253C15.174 3.138 15.3819 2.83586 15.4443 2.4189C15.5363 1.80515 15.8942 1.73324 16.5063 1.53089C16.5562 1.51425 16.608 1.50468 16.6601 1.50246C17.8157 1.45898 19.7824 1.67806 20.667 2.52593C20.6943 2.55212 20.7134 2.5858 20.7222 2.62292L20.8727 3.25506C20.8785 3.28108 20.8922 3.30476 20.9119 3.32296C20.9316 3.34117 20.9564 3.35306 20.9831 3.35707C21.0199 3.36265 21.0399 3.36543 21.0433 3.36543C21.0762 3.37194 21.1068 3.38729 21.1321 3.40991C21.1574 3.43254 21.1764 3.46163 21.1871 3.4942C21.3053 3.84428 21.3588 4.07004 21.3477 4.1715C21.2819 4.7713 21.2128 5.42017 21.1403 6.11808C21.1362 6.15654 21.1419 6.19531 21.1568 6.23072C21.1718 6.26613 21.1954 6.29701 21.2256 6.32044C21.3125 6.38844 21.3822 6.46593 21.4346 6.55289C21.4696 6.61312 21.4876 6.68135 21.4865 6.75022C21.4731 7.37233 21.3075 7.85452 20.9898 8.19679C20.7278 8.47774 20.5723 8.68956 20.5232 8.83227C20.2205 9.72696 20.1352 10.5865 20.1101 11.4829C20.0923 12.1017 20.3136 12.6206 20.774 13.0398C21.4285 13.6318 22.1961 14.0522 23.0768 14.3008C23.2066 14.3371 23.3423 14.3428 23.4732 14.3175L24.4916 14.1168C24.5172 14.1113 24.5435 14.1085 24.5702 14.1085C25.3083 14.1185 26.0324 14.2328 26.7426 14.4513C26.8087 14.4711 26.8697 14.5048 26.9215 14.55L28.1089 15.5667C28.135 15.5894 28.1668 15.6044 28.2009 15.61C28.235 15.6157 28.27 15.6118 28.302 15.5988C28.334 15.5859 28.3618 15.5643 28.3824 15.5365C28.4029 15.5087 28.4153 15.4757 28.4182 15.4413C28.6357 13.1318 28.9551 11.1819 28.6407 9.01622C28.5927 8.6851 28.4757 8.33224 28.2895 7.95764C28.2532 7.88289 28.1993 7.81755 28.1323 7.767C27.5135 7.30711 27.3413 6.89739 26.9884 5.93915C26.9851 5.93135 26.9812 5.92352 26.9767 5.91573L26.4315 4.91568C26.4148 4.88464 26.4065 4.8497 26.4077 4.81444C26.4089 4.77917 26.4194 4.74486 26.4382 4.715C26.582 4.49314 26.6289 4.24396 26.5787 3.96747C26.5668 3.90109 26.5735 3.83185 26.5979 3.76842C26.6223 3.70499 26.6633 3.65019 26.7158 3.6109C26.7683 3.57162 26.83 3.54958 26.893 3.54756C26.9561 3.54555 27.0178 3.56363 27.0704 3.59956C27.0759 3.60402 27.1183 3.65084 27.1975 3.74004C27.2073 3.75108 27.2201 3.75905 27.2344 3.763C27.2486 3.76694 27.2637 3.76669 27.2778 3.76228C27.2919 3.75787 27.3045 3.74948 27.314 3.73812C27.3234 3.72676 27.3294 3.71291 27.3312 3.69823C27.3502 3.53991 27.4087 3.42397 27.5068 3.35038C27.5543 3.31475 27.6132 3.29752 27.6724 3.30189C28.4283 3.36376 29.0052 3.8387 29.7059 3.80358C29.7592 3.80032 29.8124 3.81376 29.8581 3.84205C30.3013 4.12133 30.318 4.36214 30.2193 4.87722C30.0309 5.85497 29.9741 6.71009 30.0488 7.44257C30.0666 7.60757 30.1653 7.79598 30.3448 8.00781C30.4043 8.07808 30.4379 8.16661 30.4401 8.25866C30.4758 9.57311 30.5956 10.615 30.7996 11.3842C31.1893 12.8475 31.5405 14.0399 31.6994 15.4229C31.7428 15.8042 31.7322 16.2412 31.6676 16.734C31.6118 17.1588 31.6063 17.7564 31.6509 18.5267C31.7044 19.4231 31.6191 19.9449 31.1592 20.6891C30.9462 21.0324 30.6385 21.1869 30.2361 21.1523C28.828 21.0341 27.528 20.6997 26.3362 20.1489C26.3132 20.1382 26.2868 20.1371 26.2627 20.1458C26.2386 20.1546 26.2188 20.1725 26.2074 20.1957C25.8981 20.858 25.2743 21.8614 24.9716 22.731C24.7023 23.5053 24.5686 24.1374 24.4448 25.012C24.4069 25.2818 24.3289 25.628 24.2107 26.0505C24.0033 26.7841 23.8121 27.5356 23.6371 28.3048Z" fill="white"></path><path d="M3.90433 30.5391L0.0078125 32.5308L0.00948455 16.9497C3.63843 14.6988 6.92233 12.1886 9.86116 9.41926C10.976 8.36793 12.3039 7.03898 13.8446 5.43243C14.0063 5.68997 14.096 5.92075 14.1139 6.12478C14.1165 6.15115 14.1135 6.17786 14.1052 6.20319C14.0968 6.22853 14.0833 6.25194 14.0654 6.27194C13.7777 6.59637 13.7159 6.99773 13.8798 7.47602C14.0548 7.98663 14.2889 8.31385 14.5821 8.45767C14.7772 8.55355 14.9105 8.66448 14.9818 8.79047C15.4434 9.60489 15.4835 10.7839 15.4049 11.8174C15.3536 12.4807 15.081 12.9484 14.5872 13.2205C14.3748 13.3375 14.0654 13.386 13.8848 13.4864C13.1055 13.9212 12.2693 14.1982 11.3763 14.3175C10.3093 14.4613 9.61031 14.7038 8.80425 15.2206C8.38505 15.4892 8.06675 15.7769 7.84935 16.0835C7.05165 17.2039 6.49142 18.4599 6.31917 19.8412C6.21772 20.6584 6.13466 21.1529 6.07 21.3246C5.90611 21.7644 5.63519 22.726 5.50308 23.4283C5.30909 24.4635 5.23885 25.0906 4.91609 26.0071C4.29733 27.753 3.85751 28.8935 3.90433 30.5391Z" fill="#2BAAE2"></path><path d="M25.9076 11.7338L24.0346 14.0951C22.9688 14.3448 21.8784 13.9401 20.7635 12.881C20.3912 12.5265 20.2083 12.1011 20.215 11.605C20.2239 10.8859 20.2702 10.2805 20.3538 9.78886C20.4029 9.49341 20.5177 9.12271 20.6983 8.67676L25.9076 11.7338Z" fill="#2BAAE2"></path><path d="M99.1952 16.5367C99.2014 16.5407 99.2085 16.5429 99.2158 16.5431C99.2232 16.5433 99.2304 16.5415 99.2368 16.5379C99.2432 16.5343 99.2484 16.529 99.252 16.5226C99.2556 16.5162 99.2574 16.5089 99.2571 16.5016V11.4411C99.257 11.4259 99.2625 11.4111 99.2726 11.3994C99.2827 11.3877 99.2968 11.38 99.3123 11.3776L100.48 11.1836C100.483 11.1828 100.488 11.183 100.491 11.184C100.495 11.185 100.499 11.1868 100.502 11.1894C100.505 11.192 100.507 11.1952 100.509 11.1988C100.511 11.2024 100.511 11.2064 100.511 11.2103V25.3733C100.511 25.4078 100.5 25.4415 100.479 25.4693C100.458 25.497 100.428 25.5173 100.394 25.5271C99.4511 25.8025 98.5402 25.9586 97.6617 25.9954C96.5223 26.0444 95.612 25.9246 94.9308 25.6358C92.2066 24.4836 91.6881 21.2426 92.5377 18.6438C93.4809 15.7641 96.7837 15.1453 99.1952 16.5367ZM99.2571 24.5003V17.9598C99.2571 17.9238 99.2484 17.8883 99.2318 17.8566C99.2152 17.8248 99.1911 17.7977 99.1618 17.7776C98.3211 17.2012 97.4131 16.9403 96.4376 16.9949C94.7284 17.0902 93.8371 18.2358 93.5862 19.8512C93.2284 22.1607 93.9608 24.6391 96.6767 24.8398C97.5418 24.9033 98.3741 24.8264 99.1735 24.609C99.1976 24.6024 99.2188 24.5882 99.2339 24.5685C99.249 24.5489 99.2572 24.5249 99.2571 24.5003Z" fill="white"></path><path d="M120.227 11.3759L121.368 11.1869C121.374 11.1859 121.38 11.1862 121.386 11.1878C121.392 11.1894 121.397 11.1922 121.402 11.196C121.407 11.1998 121.41 11.2046 121.413 11.21C121.415 11.2153 121.416 11.2212 121.416 11.227V16.2139C121.416 16.224 121.419 16.2339 121.423 16.2428C121.428 16.2518 121.434 16.2594 121.442 16.2652C121.451 16.271 121.46 16.2746 121.47 16.2759C121.479 16.2772 121.489 16.276 121.498 16.2725C122.511 15.9057 123.551 15.7791 124.621 15.8928C127.198 16.1654 127.734 18.1137 127.766 20.3429C127.772 20.7153 127.773 22.5041 127.771 25.7094C127.771 25.7276 127.764 25.745 127.751 25.7579C127.738 25.7707 127.721 25.778 127.703 25.778H126.586C126.567 25.778 126.549 25.7706 126.536 25.7574C126.523 25.7442 126.515 25.7263 126.515 25.7077C126.517 23.5822 126.586 21.5603 126.438 19.5485C126.351 18.3612 125.835 17.2508 124.525 17.0618C123.589 16.9258 122.584 17.0367 121.512 17.3946C121.484 17.4037 121.46 17.4215 121.443 17.4452C121.425 17.4689 121.416 17.4974 121.416 17.5267V25.7345C121.416 25.7456 121.412 25.7562 121.404 25.764C121.396 25.7719 121.386 25.7763 121.375 25.7763H120.201C120.196 25.7763 120.191 25.7753 120.186 25.7734C120.181 25.7714 120.177 25.7686 120.173 25.765C120.17 25.7614 120.167 25.7572 120.165 25.7525C120.163 25.7479 120.162 25.7429 120.162 25.7378V11.4511C120.162 11.433 120.168 11.4155 120.18 11.4017C120.192 11.3878 120.209 11.3787 120.227 11.3759Z" fill="white"></path><path d="M52.5674 25.9769C51.7268 25.9223 51.166 25.8426 50.8851 25.7378C49.7646 25.3197 49.1999 24.5332 49.191 23.3781C49.1676 20.3523 49.1637 16.4402 49.1793 11.6418C49.1793 11.6151 49.1889 11.5892 49.2063 11.5687C49.2238 11.5482 49.2479 11.5344 49.2746 11.5297L51.3985 11.1785C51.4074 11.1771 51.4165 11.1776 51.4252 11.18C51.4339 11.1825 51.442 11.1868 51.4489 11.1927C51.4557 11.1986 51.4612 11.2059 51.4649 11.2142C51.4686 11.2224 51.4705 11.2314 51.4704 11.2404C51.4726 12.2471 51.4732 16.0076 51.472 22.5219C51.472 23.4863 51.9487 23.9902 52.9019 24.0337C52.9174 24.0343 52.9326 24.0384 52.9464 24.0455C52.9602 24.0526 52.9723 24.0626 52.9819 24.0748C52.9914 24.0871 52.9982 24.1013 53.0017 24.1164C53.0052 24.1315 53.0054 24.1473 53.0022 24.1625L52.641 25.9218C52.6378 25.9379 52.6287 25.9524 52.6151 25.9626C52.6016 25.9727 52.5847 25.9778 52.5674 25.9769Z" fill="white"></path><path d="M28.5284 13.2723L28.3194 15.3878C28.3175 15.4053 28.3109 15.4219 28.3004 15.436C28.2899 15.4501 28.2758 15.4611 28.2596 15.4679C28.2434 15.4747 28.2257 15.4771 28.2082 15.4748C28.1908 15.4725 28.1743 15.4655 28.1605 15.4547L26.8527 14.4061C26.8217 14.3818 26.7873 14.3626 26.7507 14.3493C25.9034 14.0594 24.9976 13.9747 24.0332 14.0951L25.9062 11.7338L28.5284 13.2723Z" fill="#0971B7"></path><path d="M40.0727 21.2142C40.0653 21.2142 40.0579 21.2156 40.051 21.2185C40.0441 21.2213 40.0378 21.2255 40.0325 21.2308C40.0273 21.2361 40.0231 21.2424 40.0202 21.2493C40.0173 21.2562 40.0159 21.2635 40.0159 21.271V25.7077C40.0154 25.7265 40.0078 25.7443 39.9947 25.7575C39.9816 25.7706 39.964 25.7779 39.9456 25.7779H37.6897C37.6822 25.7779 37.6748 25.7764 37.6679 25.7735C37.661 25.7705 37.6547 25.7662 37.6495 25.7608C37.6442 25.7554 37.64 25.7489 37.6371 25.7418C37.6343 25.7347 37.6328 25.7271 37.6328 25.7194V13.0582C37.6329 13.0115 37.6495 12.9664 37.6795 12.9309C37.7095 12.8954 37.751 12.8718 37.7967 12.8642C39.2159 12.6379 40.6525 12.5576 42.1063 12.6234C44.0428 12.712 46.3757 13.3057 47.0012 15.4446C47.2565 16.3187 47.2777 17.2039 47.0647 18.1003C46.5998 20.0485 44.8439 20.858 43.021 21.082C42.099 21.1958 41.1163 21.2398 40.0727 21.2142ZM40.0025 14.7891L40.0259 19.0368C40.0259 19.046 40.0277 19.0551 40.0313 19.0637C40.0348 19.0722 40.04 19.0799 40.0465 19.0865C40.053 19.093 40.0607 19.0981 40.0693 19.1017C40.0778 19.1052 40.0869 19.107 40.0961 19.107L42.1631 19.097C42.4957 19.0953 42.8247 19.0425 43.1314 18.9418C43.4381 18.841 43.7165 18.6942 43.9507 18.5097C44.1849 18.3252 44.3703 18.1067 44.4963 17.8665C44.6223 17.6264 44.6864 17.3694 44.685 17.1103L44.6817 16.6688C44.6789 16.1455 44.4095 15.645 43.9328 15.2774C43.4562 14.9099 42.8112 14.7053 42.1397 14.7088L40.0727 14.7188C40.0541 14.7188 40.0362 14.7262 40.0231 14.7394C40.0099 14.7526 40.0025 14.7704 40.0025 14.7891Z" fill="white"></path><path d="M31.8112 15.1938C33.1926 16.0266 33.9713 17.1761 34.1475 18.6421C34.4106 20.8318 33.5755 22.4863 31.6423 23.6056C29.0781 25.0895 26.4682 26.6097 23.8125 28.166C23.9095 27.564 24.0383 26.9815 24.1988 26.4185C24.375 25.7986 24.4809 25.3716 24.5166 25.1375C24.56 24.8487 24.6046 24.5588 24.6503 24.2679C24.8811 22.7979 25.6186 21.5888 26.2357 20.3329C26.2465 20.3103 26.2657 20.2928 26.2894 20.2841C26.3131 20.2753 26.3394 20.2761 26.3628 20.286C27.6293 20.8234 28.9153 21.1434 30.2209 21.246C30.7114 21.285 31.0815 21.0726 31.3313 20.6088C31.5877 20.1294 31.7193 19.7359 31.726 19.4281C31.7349 18.9655 31.7282 18.3356 31.7059 17.5384C31.6908 17.015 31.7912 16.5802 31.8347 16.0183C31.838 15.9749 31.8363 15.9312 31.8296 15.8878C31.7951 15.6727 31.7889 15.4413 31.8112 15.1938Z" fill="#0971B7"></path><path d="M61.9484 25.5773C60.4483 25.8867 58.8964 26.069 57.3796 25.9569C55.2373 25.7964 53.8259 24.6759 54.1235 22.3146C54.4513 19.7191 57.617 19.4583 59.7041 19.8814C59.7162 19.8838 59.7286 19.8836 59.7406 19.8808C59.7525 19.8781 59.7638 19.8728 59.7736 19.8654C59.7834 19.8579 59.7915 19.8485 59.7974 19.8377C59.8033 19.8269 59.8068 19.815 59.8078 19.8028C60.0185 17.01 57.204 17.5434 55.4045 17.9749C55.393 17.9776 55.381 17.9779 55.3693 17.9757C55.3577 17.9736 55.3466 17.9691 55.3367 17.9625C55.3268 17.956 55.3184 17.9474 55.312 17.9375C55.3055 17.9275 55.3012 17.9164 55.2992 17.9047L55.0166 16.1989C55.0137 16.1806 55.0176 16.1619 55.0274 16.1463C55.0373 16.1306 55.0524 16.119 55.0701 16.1136C56.3132 15.7435 57.578 15.6125 58.8646 15.7206C60.1723 15.831 61.3279 16.4447 61.7928 17.7525C61.9578 18.2174 62.0415 18.6355 62.0437 19.0067C62.0649 22.1964 62.0654 24.3476 62.0454 25.4602C62.0448 25.4878 62.0349 25.5144 62.0173 25.5357C61.9997 25.557 61.9754 25.5716 61.9484 25.5773ZM59.8429 23.7729L59.8329 21.7728C59.8326 21.726 59.8232 21.6797 59.8051 21.6366C59.787 21.5934 59.7606 21.5543 59.7274 21.5214C59.6941 21.4884 59.6547 21.4624 59.6114 21.4447C59.5681 21.427 59.5218 21.418 59.475 21.4182L57.9849 21.4249C57.5645 21.4272 57.162 21.5572 56.866 21.7865C56.5699 22.0157 56.4046 22.3254 56.4063 22.6474V22.9317C56.4071 23.0911 56.449 23.2488 56.5294 23.3957C56.6099 23.5426 56.7274 23.6758 56.8752 23.7878C57.0231 23.8998 57.1984 23.9883 57.3911 24.0483C57.5838 24.1083 57.7901 24.1386 57.9983 24.1374L59.4884 24.1307C59.5351 24.1305 59.5814 24.1211 59.6246 24.103C59.6677 24.0849 59.7068 24.0585 59.7398 24.0252C59.7727 23.992 59.7987 23.9526 59.8164 23.9093C59.8341 23.866 59.8431 23.8196 59.8429 23.7729Z" fill="white"></path><path d="M81.737 23.6692L82.0163 25.3532C82.0211 25.3823 82.0155 25.4121 82.0005 25.4375C81.9855 25.4629 81.9621 25.4822 81.9343 25.492C80.7447 25.9134 79.5423 26.0851 78.3271 26.0071C75.9123 25.8521 74.4367 24.6441 73.9005 22.3832C73.5476 20.8948 73.7617 18.8445 74.7015 17.5485C75.7874 16.0556 77.3349 15.4608 79.3439 15.7641C81.0246 16.0166 82.1417 17.2809 82.4895 18.985C82.6679 19.8602 82.7114 20.698 82.62 21.4985C82.6167 21.5258 82.6036 21.5509 82.5833 21.5691C82.5629 21.5873 82.5367 21.5973 82.5096 21.5972H76.24C76.229 21.5971 76.218 21.5994 76.2079 21.6038C76.1978 21.6081 76.1887 21.6146 76.1813 21.6226C76.1739 21.6307 76.1683 21.6402 76.1648 21.6505C76.1614 21.6608 76.1603 21.6717 76.1614 21.6824C76.2395 22.4238 76.5405 23.0069 77.0645 23.4317C78.0528 24.2311 79.9008 24.099 81.0898 23.7377C81.2983 23.6742 81.4733 23.6246 81.6149 23.5889C81.6281 23.5855 81.6418 23.5849 81.6553 23.5872C81.6687 23.5895 81.6816 23.5945 81.693 23.6021C81.7045 23.6096 81.7143 23.6194 81.7219 23.631C81.7294 23.6425 81.7346 23.6555 81.737 23.6692ZM76.2768 19.888L80.3239 19.8814C80.335 19.8814 80.3456 19.8769 80.3534 19.8691C80.3613 19.8613 80.3657 19.8506 80.3657 19.8395V19.7994C80.3647 19.2189 80.1476 18.6625 79.7622 18.2526C79.3768 17.8427 78.8545 17.6129 78.3104 17.6137H78.2836C78.0141 17.6141 77.7474 17.6711 77.4986 17.7815C77.2498 17.8919 77.0238 18.0535 76.8336 18.2571C76.6433 18.4607 76.4926 18.7023 76.3899 18.9681C76.2872 19.2338 76.2346 19.5186 76.235 19.8061V19.8462C76.235 19.8573 76.2394 19.868 76.2473 19.8758C76.2551 19.8836 76.2657 19.888 76.2768 19.888Z" fill="white"></path><path d="M142.18 25.4619C142.18 25.4895 142.17 25.5161 142.152 25.5374C142.135 25.5586 142.111 25.5733 142.084 25.579C140.583 25.8883 139.03 26.0723 137.511 25.9603C135.369 25.8014 133.956 24.6809 134.252 22.3179C134.578 19.7208 137.747 19.4583 139.834 19.8797C139.846 19.8823 139.859 19.8824 139.871 19.8797C139.883 19.8771 139.895 19.8719 139.905 19.8644C139.915 19.857 139.923 19.8475 139.929 19.8365C139.935 19.8256 139.939 19.8135 139.94 19.8011C140.149 17.0066 137.332 17.5418 135.531 17.9749C135.52 17.9776 135.508 17.9779 135.496 17.9757C135.484 17.9736 135.473 17.9691 135.463 17.9625C135.454 17.956 135.445 17.9474 135.439 17.9375C135.432 17.9275 135.428 17.9164 135.426 17.9047L135.143 16.1972C135.141 16.1792 135.144 16.1607 135.154 16.1451C135.164 16.1295 135.179 16.1177 135.197 16.1119C136.44 15.7407 137.705 15.6091 138.993 15.7173C140.301 15.8276 141.458 16.4397 141.925 17.7491C142.09 18.214 142.173 18.6321 142.175 19.0034C142.199 22.1953 142.201 24.3481 142.18 25.4619ZM139.945 23.7662L139.938 21.7828C139.938 21.7349 139.928 21.6875 139.91 21.6434C139.891 21.5993 139.864 21.5592 139.83 21.5255C139.796 21.4918 139.756 21.4651 139.711 21.447C139.667 21.4289 139.62 21.4197 139.572 21.4199L138.115 21.4249C137.905 21.4257 137.697 21.4589 137.503 21.5226C137.309 21.5864 137.133 21.6794 136.985 21.7963C136.836 21.9132 136.719 22.0518 136.639 22.2042C136.56 22.3565 136.519 22.5196 136.52 22.6842V22.8915C136.521 23.2236 136.691 23.5414 136.992 23.7751C137.293 24.0087 137.701 24.139 138.125 24.1374L139.582 24.1324C139.63 24.1322 139.677 24.1225 139.721 24.104C139.765 24.0855 139.805 24.0585 139.839 24.0244C139.873 23.9904 139.899 23.9501 139.917 23.9058C139.936 23.8615 139.945 23.814 139.945 23.7662Z" fill="white"></path><path d="M91.034 16.1638L90.6745 17.9197C90.6719 17.9318 90.667 17.9432 90.6599 17.9533C90.6528 17.9634 90.6438 17.972 90.6334 17.9786C90.6229 17.9851 90.6112 17.9895 90.5991 17.9915C90.5869 17.9934 90.5744 17.9929 90.5624 17.9899C89.4353 17.7057 88.5239 17.597 87.4352 17.8863C87.4087 17.8936 87.3853 17.9092 87.3687 17.9306C87.3521 17.9521 87.3431 17.9782 87.3432 18.005V25.7077C87.3432 25.7264 87.3358 25.7442 87.3226 25.7574C87.3095 25.7706 87.2916 25.778 87.273 25.778H85.0622C85.0462 25.778 85.0309 25.7716 85.0196 25.7603C85.0083 25.7491 85.002 25.7337 85.002 25.7178V16.4531C85.0018 16.4365 85.0071 16.4201 85.017 16.4063C85.0268 16.3926 85.0409 16.382 85.0571 16.3762C86.2701 15.9492 87.5054 15.7273 88.763 15.7106C89.3305 15.7028 90.0546 15.8025 90.9354 16.0099C90.9687 16.018 90.9977 16.0385 91.0161 16.0672C91.0345 16.096 91.041 16.1306 91.034 16.1638Z" fill="white"></path><path d="M147.239 25.6057V29.1828C147.239 29.2014 147.232 29.2193 147.219 29.2324C147.206 29.2456 147.188 29.253 147.17 29.253H144.973C144.958 29.253 144.943 29.2469 144.933 29.2359C144.922 29.2249 144.916 29.21 144.916 29.1945V16.4112C144.916 16.3666 144.93 16.3232 144.957 16.2878C144.984 16.2524 145.022 16.227 145.065 16.2156C146.439 15.8465 147.774 15.6832 149.068 15.7256C151.552 15.8042 153.361 17.3026 153.721 19.7174C154.077 22.1155 153.421 24.9735 150.831 25.798C149.763 26.138 148.601 26.0505 147.344 25.5354C147.332 25.5307 147.32 25.529 147.307 25.5302C147.295 25.5315 147.283 25.5358 147.272 25.5428C147.262 25.5497 147.253 25.5591 147.247 25.5701C147.242 25.581 147.239 25.5933 147.239 25.6057ZM147.247 17.9682L147.246 23.3296C147.246 23.3586 147.253 23.3871 147.268 23.4125C147.282 23.4379 147.303 23.4595 147.328 23.4751C148.438 24.1708 150.219 24.2996 150.968 22.9968C151.766 21.6055 151.697 18.6555 149.93 17.9565C149.203 17.6688 148.345 17.6281 147.356 17.8344C147.325 17.8409 147.298 17.8577 147.278 17.8821C147.258 17.9064 147.247 17.9368 147.247 17.9682Z" fill="white"></path><path d="M158.537 25.5304C158.526 25.5257 158.513 25.5239 158.5 25.5252C158.488 25.5265 158.476 25.5308 158.465 25.5377C158.455 25.5447 158.446 25.5541 158.44 25.565C158.435 25.576 158.432 25.5883 158.432 25.6007L158.429 29.1744C158.429 29.193 158.421 29.2109 158.409 29.2241C158.396 29.2373 158.378 29.2447 158.36 29.2447L156.164 29.2413C156.149 29.2413 156.135 29.2351 156.124 29.2242C156.113 29.2132 156.107 29.1983 156.107 29.1828L156.119 16.4112C156.119 16.3669 156.134 16.3239 156.161 16.2888C156.188 16.2538 156.225 16.2286 156.268 16.2172C157.642 15.8493 158.975 15.6871 160.268 15.7306C162.748 15.8109 164.554 17.3093 164.912 19.7224C165.267 22.1189 164.61 24.9735 162.019 25.7947C160.952 26.1336 159.792 26.0455 158.537 25.5304ZM158.422 17.9631V23.3347C158.422 23.3639 158.429 23.3927 158.444 23.4185C158.458 23.4442 158.479 23.466 158.504 23.4818C159.618 24.1775 161.402 24.3063 162.151 23.0002C162.951 21.6055 162.88 18.6505 161.109 17.9498C160.381 17.6621 159.522 17.622 158.531 17.8294C158.5 17.8359 158.472 17.8527 158.453 17.877C158.433 17.9014 158.422 17.9318 158.422 17.9631Z" fill="white"></path><path d="M108.533 20.0586C108.62 18.3695 108.273 17.0283 106.309 16.9481C105.461 16.9135 104.69 17.0306 103.998 17.2992C103.98 17.3065 103.961 17.3095 103.941 17.308C103.922 17.3066 103.903 17.3008 103.886 17.291C103.869 17.2812 103.854 17.2677 103.843 17.2515C103.832 17.2353 103.824 17.2167 103.821 17.1972L103.687 16.3828C103.679 16.3336 103.688 16.2831 103.714 16.2406C103.74 16.1982 103.78 16.1667 103.828 16.152C104.754 15.861 105.743 15.7557 106.794 15.836C108.12 15.9374 109.023 16.5361 109.503 17.632C109.713 18.1114 109.813 18.9872 109.804 20.2593C109.787 22.8603 109.783 24.5973 109.794 25.4702C109.795 25.4967 109.786 25.5226 109.769 25.5437C109.753 25.5647 109.729 25.5795 109.702 25.5856C108.679 25.8108 107.651 25.9452 106.617 25.9887C104.572 26.0756 102.731 25.4468 102.602 23.1106C102.424 19.8813 106.179 19.6071 108.42 20.1439C108.433 20.1471 108.447 20.1474 108.46 20.1446C108.473 20.1419 108.486 20.1363 108.497 20.1281C108.508 20.12 108.517 20.1095 108.523 20.0975C108.529 20.0854 108.533 20.0722 108.533 20.0586ZM108.54 24.6291V21.4416C108.54 21.3974 108.526 21.3543 108.499 21.319C108.472 21.2836 108.434 21.258 108.391 21.2459C107.149 20.8897 104.485 20.7192 104.008 22.3179C103.728 23.2533 103.961 23.9858 104.707 24.5153C104.749 24.5443 104.795 24.5689 104.843 24.5889C105.903 25.0237 107.365 24.8849 108.478 24.701C108.496 24.6982 108.511 24.6894 108.523 24.6762C108.534 24.663 108.54 24.6463 108.54 24.6291Z" fill="white"></path><path d="M111.694 25.4837C111.686 25.4797 111.679 25.4734 111.675 25.4655C111.671 25.4577 111.669 25.4488 111.67 25.4402L111.89 24.3749C111.892 24.3649 111.896 24.3554 111.902 24.3473C111.908 24.3391 111.916 24.3324 111.926 24.3278C111.935 24.3231 111.945 24.3206 111.955 24.3204C111.965 24.3201 111.976 24.3222 111.985 24.3264C113.102 24.8515 114.29 24.997 115.55 24.7629C115.951 24.6882 116.273 24.5421 116.517 24.3247C117.057 23.8414 117.015 22.8397 116.524 22.3497C116.282 22.1078 115.879 21.8703 115.314 21.6373C114.552 21.3229 113.929 21.0525 113.446 20.8262C112.664 20.4583 111.926 19.8161 111.818 18.9148C111.406 15.4932 115.507 15.4597 117.602 16.219C117.63 16.2291 117.654 16.2492 117.669 16.2756C117.684 16.302 117.688 16.3329 117.682 16.3628L117.49 17.3026C117.487 17.3185 117.48 17.3334 117.47 17.3463C117.46 17.3591 117.448 17.3696 117.433 17.377C117.419 17.3844 117.403 17.3884 117.387 17.3889C117.371 17.3893 117.354 17.3861 117.34 17.3796C116.35 16.9314 115.342 16.8082 114.316 17.01C113.709 17.1304 113.129 17.5769 113.064 18.2508C112.97 19.2208 113.781 19.7041 114.615 20.0386C116.084 20.6289 117.965 21.154 118.177 22.9016C118.349 24.3164 117.75 25.2618 116.381 25.7379C115.552 26.0255 114.733 26.0138 113.684 25.9753C113.023 25.9519 112.359 25.788 111.694 25.4837Z" fill="white"></path><path d="M68.1129 22.9601C68.1178 22.9712 68.126 22.9805 68.1363 22.9869C68.1466 22.9933 68.1585 22.9964 68.1707 22.9959C68.1828 22.9953 68.1944 22.9911 68.2041 22.9839C68.2138 22.9766 68.2211 22.9666 68.225 22.9551C68.9686 20.7588 69.6269 18.4443 70.2 16.0116C70.2068 15.983 70.223 15.9575 70.2461 15.9393C70.2691 15.9211 70.2977 15.9112 70.3271 15.9113H72.5145C72.5279 15.9113 72.5411 15.9144 72.5531 15.9204C72.5651 15.9263 72.5756 15.935 72.5837 15.9457C72.5918 15.9564 72.5973 15.9688 72.5998 15.982C72.6023 15.9951 72.6017 16.0087 72.5981 16.0216C71.9046 18.5903 71.0963 21.0799 70.1732 23.4902C69.6704 24.8036 69.1648 25.9703 68.6564 26.9904C68.0912 28.1243 67.1664 29.0123 65.8753 29.2213C64.9444 29.3729 64.0486 29.2921 63.1879 28.9788C63.1637 28.9701 63.1435 28.953 63.1309 28.9305C63.1183 28.9081 63.1142 28.8819 63.1193 28.8567L63.4622 27.1894C63.4657 27.1712 63.4733 27.154 63.4843 27.139C63.4953 27.124 63.5095 27.1116 63.5259 27.1027C63.5424 27.0938 63.5606 27.0885 63.5793 27.0873C63.5981 27.0861 63.6169 27.089 63.6344 27.0958C64.1841 27.3143 64.7493 27.3812 65.3302 27.2965C66.2198 27.1643 66.6546 26.5606 67.0426 25.7679C67.0624 25.7281 67.0724 25.6841 67.0718 25.6396C67.0712 25.5951 67.0601 25.5514 67.0393 25.5121C65.4718 22.4684 64.2186 19.2882 63.2799 15.9715C63.2778 15.9644 63.2774 15.957 63.2787 15.9498C63.28 15.9426 63.2829 15.9358 63.2873 15.93C63.2917 15.9241 63.2974 15.9194 63.3039 15.9161C63.3105 15.9129 63.3177 15.9112 63.325 15.9113H65.6395C65.6669 15.9114 65.6935 15.9204 65.7152 15.937C65.7369 15.9536 65.7527 15.9769 65.76 16.0032C66.3787 18.3902 67.163 20.7092 68.1129 22.9601Z" fill="white"></path><path d="M131.356 26.0489C132.203 26.0489 132.889 25.3623 132.889 24.5154C132.889 23.6684 132.203 22.9818 131.356 22.9818C130.509 22.9818 129.822 23.6684 129.822 24.5154C129.822 25.3623 130.509 26.0489 131.356 26.0489Z" fill="#0971B7"></path><path d="M10.3995 26.4101L7.17188 28.5139C7.43499 28.1672 7.68082 27.8361 7.90937 27.5206C8.13792 27.205 8.34864 26.8533 8.54151 26.4653C8.90831 25.7317 9.27287 24.7991 9.63521 23.6675C9.65528 23.6051 9.6982 23.5638 9.76398 23.5438C9.77751 23.5398 9.79172 23.5387 9.80569 23.5406C9.81967 23.5425 9.83309 23.5473 9.84508 23.5547C9.85707 23.5621 9.86737 23.572 9.87529 23.5836C9.88322 23.5953 9.8886 23.6085 9.89108 23.6224L10.3995 26.4101Z" fill="#2BAAE2"></path><path d="M10.4 26.4101C10.6453 27.5161 10.7289 28.5808 10.6509 29.6043C10.5723 30.6194 10.5338 31.5509 10.5037 32.668C10.5035 32.6801 10.4999 32.6919 10.4932 32.702C10.4865 32.7121 10.4771 32.7201 10.466 32.725C10.4549 32.7299 10.4427 32.7316 10.4307 32.7298C10.4187 32.728 10.4075 32.7228 10.3984 32.7148C10.259 32.5966 10.0578 32.5186 9.79466 32.4807C8.53206 32.2984 7.4534 31.9138 7.11727 30.5307C7.05037 30.2565 6.81625 29.4136 6.89485 29.0006C6.93498 28.7809 7.02752 28.6187 7.17245 28.5139L10.4 26.4101Z" fill="#0971B7"></path><path d="M10.1538 36.1932C9.3645 36.6614 8.55677 37.1369 7.73064 37.6197C6.76403 38.1849 6.03546 38.516 5.54491 38.613C4.72658 38.7758 3.93167 38.7106 3.16017 38.4174C1.06307 37.6213 -0.0406629 35.9223 0.00114531 33.6897C0.0089495 33.2805 0.0111794 32.8942 0.00783477 32.5308L3.90436 30.539C4.23715 31.8635 4.98133 32.6863 5.97637 33.9155C6.00819 33.955 6.02947 34.0015 6.03824 34.0509L6.2222 35.168C6.25882 35.3874 6.37706 35.5851 6.55332 35.7216C7.00596 36.0705 7.53498 36.3521 8.14036 36.5661C8.24245 36.6021 8.35165 36.6071 8.45229 36.5804C8.55294 36.5536 8.63986 36.4965 8.70059 36.4173C8.76079 36.3381 8.88454 36.2428 9.07184 36.1313C9.13749 36.093 9.19129 36.0375 9.22737 35.9708C9.39293 35.6731 9.73074 35.5326 9.83944 35.2165C9.94313 34.9178 9.99943 34.6413 10.0083 34.3871C10.0114 34.2957 9.98706 34.2054 9.93853 34.1276C9.89 34.0499 9.81942 33.9883 9.73576 33.9506C9.68782 33.9283 9.46317 33.828 9.06181 33.6496C9.03532 33.638 9.01147 33.6211 8.992 33.6C8.97252 33.5789 8.95792 33.5542 8.94926 33.5278C8.94061 33.5013 8.93811 33.4738 8.94196 33.4471C8.94581 33.4204 8.9559 33.3953 8.97151 33.3736C9.02168 33.3045 9.11198 33.2644 9.24242 33.2532C9.3829 33.2421 9.66162 33.2332 10.0786 33.2265C10.2358 33.2242 10.3417 33.1618 10.3963 33.0392C10.4033 33.0233 10.4157 33.0105 10.4314 33.003C10.4471 32.9956 10.4649 32.9941 10.4816 32.9988C10.4983 33.0035 10.5127 33.014 10.5223 33.0285C10.5318 33.043 10.5358 33.0605 10.5335 33.0776L10.1538 36.1932Z" fill="#0971B7"></path></svg>