<svg xmlns="http://www.w3.org/2000/svg" width="84" height="21" viewBox="0 0 84 21" fill="none"><path d="M41.5938 15.1016C39.6875 15.1016 38.0703 14.0312 37.7422 12.0703L38.8047 11.8047C39.0234 13.3359 40.1328 14.1406 41.6094 14.1406C43.1016 14.1406 44.0703 13.25 44.0703 12.0547C44.0703 9.15625 38.3984 10.1016 38.3984 6.65625C38.3984 4.9375 39.7891 3.84375 41.5234 3.84375C42.875 3.84375 43.9453 4.38281 44.6484 5.61719L43.7578 6.17188C43.25 5.25 42.5078 4.79688 41.4844 4.79688C40.3359 4.79688 39.4688 5.5625 39.4688 6.60938C39.4688 9.23438 45.1406 8.32812 45.1406 11.9688C45.1406 13.8594 43.5938 15.1016 41.5938 15.1016ZM47.0234 18.2344V7.19531H48.0859V8.92188C48.5781 7.76562 49.6562 7.07031 50.8906 7.07031C52.9844 7.07031 54.1953 8.89062 54.1953 11.1016C54.1953 13.3203 52.9844 15.1172 50.875 15.1172C49.6328 15.1172 48.5781 14.4219 48.0859 13.2812V18.2344H47.0234ZM50.6484 14.1797C52.2812 14.1797 53.1562 12.8281 53.1562 11.1016C53.1562 9.36719 52.2812 8.03125 50.6484 8.03125C49.0234 8.03125 48 9.35156 48 11.1016C48 12.8516 49.0234 14.1797 50.6484 14.1797ZM59.4609 15.1172C57.2422 15.1172 55.6953 13.3281 55.6953 11.0781C55.6953 8.85156 57.2422 7.07031 59.4609 7.07031C61.6875 7.07031 63.2578 8.85156 63.2578 11.0781C63.2578 13.3203 61.6875 15.1172 59.4609 15.1172ZM59.4609 14.2188C61.1641 14.2188 62.1875 12.8047 62.1875 11.0781C62.1875 9.35938 61.1641 7.97656 59.4609 7.97656C57.7734 7.97656 56.7656 9.35156 56.7656 11.0781C56.7656 12.8125 57.7734 14.2188 59.4609 14.2188ZM65.3828 15V7.19531H66.3906V8.82812C66.7812 7.625 67.8672 7.07031 68.7969 7.07031C69.2344 7.07031 69.6797 7.19531 70.0156 7.44531L69.5469 8.30469C69.2734 8.15625 68.9688 8.07812 68.6562 8.07812C67.6172 8.07812 66.3828 8.89844 66.3828 11.0156V15H65.3828ZM74.3516 15.1172C72.9688 15.1172 72.2266 14.3047 72.2266 12.8125V8.07031H70.9297V7.19531H72.2422V4.9375L73.2578 4.17969V7.19531H75.4453V8.07031H73.2578V12.6484C73.2578 13.75 73.6953 14.2031 74.5234 14.2031C74.8672 14.2031 75.2188 14.1016 75.4375 14.0156L75.4531 14.9609C75.2109 15.0391 74.7891 15.1172 74.3516 15.1172ZM79.9375 15.1172C78.3984 15.1172 77.1719 14.25 76.7734 13.0625L77.6094 12.6953C77.9062 13.5312 78.6797 14.25 79.8906 14.25C81.0703 14.25 81.6953 13.6328 81.6953 12.8125C81.6953 10.6953 77.1641 12.0391 77.1641 9.21875C77.1641 7.82812 78.3438 7.07031 79.8359 7.07031C81.0703 7.07031 82.0312 7.67188 82.5781 8.70312L81.7812 9.13281C81.4062 8.42969 80.7578 7.90625 79.8047 7.90625C78.7969 7.90625 78.1562 8.39062 78.1562 9.08594C78.1562 11.0234 82.7109 9.77344 82.7109 12.7656C82.7109 14.3281 81.4609 15.1172 79.9375 15.1172Z" fill="white"></path><path d="M0 1H26" stroke="white" stroke-width="2"></path><path d="M0 10.5H26" stroke="white" stroke-width="2"></path><path d="M0 20H26" stroke="white" stroke-width="2"></path></svg>