<svg xmlns="http://www.w3.org/2000/svg" id="Layer_1" data-name="Layer 1" width="572.11" height="715" viewBox="0 0 572.11 715"><defs><style>.cls-1{fill:#aaaeae;}.cls-2{fill:#002344;}.cls-3{fill:#fffffe;}.cls-4{fill:#8dbcda;}.cls-5{fill:#dc3b41;}.cls-6{fill:#fff;}</style></defs><title>uconn-huskies-logo</title><g id="Layer_2" data-name="Layer 2"><g id="Layer_1-2" data-name="Layer 1-2"><path class="cls-1" d="M577.18,548.86l-7.42-22.78s-42.68,82.33-109.65,122.11c0,0-24.94,67-85.2,75.3-60.25-8.29-85.2-75.3-85.2-75.3-67-39.73-109.65-122.11-109.65-122.11l-7.24,22.78C128.68,472.18,98.66,358,98.66,358a438.58,438.58,0,0,1,54.47-71.86l-11.83-6.27A273.85,273.85,0,0,1,167,236.59c23-161.7,96.67-207.83,96.67-207.83,44.81,41.36,57.13,103,57.13,103,18.71-2.12,54.16-3.71,54.16-3.71s35.32,1.59,54.21,3.71c0,0,12.27-61.8,57.08-103,0,0,73.67,46,96.67,207.83a270.93,270.93,0,0,1,25.61,43.26l-11.88,6.27A441.09,441.09,0,0,1,651.16,358S621.15,472.18,577.18,548.86ZM659,353.39a439.91,439.91,0,0,0-47.81-64.76l8.83-4.77-3.4-7.68a276.31,276.31,0,0,0-25.21-43.08C567.82,70.78,494.1,23.11,491,21.12l-5.83-3.62-5.08,4.68c-37.21,34.3-53,81.22-57.91,99.81-19.16-1.68-45.6-3-46.89-3h-.75c-1.28,0-27.67,1.24-46.88,2.91-5-18.54-20.66-65.46-57.69-99.76l-5.26-4.68-5.87,3.62C255.72,23.11,182,70.78,158.34,233a272.6,272.6,0,0,0-25.25,43.17l-3.4,7.68,8.83,4.77a443.3,443.3,0,0,0-47.67,64.76L89,356.61l1,3.67c1.23,4.68,30.9,116.18,75,193.13l10.11,17.66,7.46-22.87c16.47,26.49,51.69,76.41,100.08,106.21,5.91,13.86,33.24,70,91.2,78.09h2.47c58-8.08,85.29-64.23,91.16-78.09C516,624.61,551.31,575,567.56,548.2L575,571.07l10.11-17.66c44.15-76.95,73.72-188.45,75-193.13l.92-3.67-1.85-3.22Z" transform="translate(-88.95 -17.5)"></path><path class="cls-2" d="M406.3,631.59c-18.67,6.22-16.38,9.66-31.39,10.5-15.05-.84-12.76-4.41-31.47-10.5-18.19-8.26-20.31-44.15-7.68-55-5.48,23.62,13.9,45.69,14.08,45.21a8.39,8.39,0,0,1,4.68-6.36,21.81,21.81,0,0,0,40.74,0,8.39,8.39,0,0,1,4.68,6.36c0,.61,19.56-21.5,14.08-45.21C426.6,587.62,424.44,623.33,406.3,631.59Zm-31.39-40.22c6.93,0,2.92-17.3,25.87-17.3-.44,18.54-13.86,30.54-25.87,30.9-12.05-.4-25.47-12.41-25.91-30.9C372.13,573.71,368,591.37,374.91,591.37Zm-25.16-97.73c3.8-6.62,14.74-11.22,25.16-11.22s21.28,4.42,25.12,11.22A45.21,45.21,0,0,0,349.75,493.64Zm110,7.1c-20.66,39.73-29.05,53.9-55.14,55s-23.13-12.58-23.13-12.58,32-7.28,32.44-55.44A52.31,52.31,0,0,0,340,484.83c-1,.92-1.93,1.86-2.84,2.85.48,48.16,32.49,55.44,32.49,55.44s2.91,13.64-23.18,12.58-34.47-15.18-55.13-55c-8-15.4-14.44-20.21-19.38-20.35A402.33,402.33,0,0,1,305,562.06c3.75,11.08,7.11,22.87,10,35,13.24,57,60.56,61.19,60.56,61.19s47.28-4.15,60.57-61.19a360.37,360.37,0,0,1,10.37-37.34A399.69,399.69,0,0,1,479,480.22c-5,0-11.48,4.81-19.56,20.35Z" transform="translate(-88.95 -17.5)"></path><path class="cls-2" d="M456.84,355.82a8.39,8.39,0,0,0,5.52-10.07,37.31,37.31,0,0,1,6.23-.83S471.94,359.13,459,363a12.36,12.36,0,0,1-15.94-7.18,13,13,0,0,1-.4-1.25,50.37,50.37,0,0,1,13-6.93,36.07,36.07,0,0,1-3.84,8.08A7.37,7.37,0,0,0,456.84,355.82Zm-163,0a7.4,7.4,0,0,0,5,0,32.22,32.22,0,0,1-3.84-8.08A50.54,50.54,0,0,1,308,354.67a12.36,12.36,0,0,1-15.09,8.83,10.54,10.54,0,0,1-1.24-.4c-12.94-3.88-9.54-18.1-9.54-18.1a37.8,37.8,0,0,1,6.18.84A8.44,8.44,0,0,0,293.86,355.82ZM608.79,372a837.16,837.16,0,0,1-38.45,115.66l-7.42-18.32c-32,62.73-62,82.28-62,82.28,8.83-31.34,23.17-65.9,23.17-65.9C479.22,518.18,452.38,588,440.82,624.92,423.16,681.43,375.35,680,375.35,680s-47.76,1.42-65.51-55.09c-11.56-36.9-38.45-106.74-83.25-139.18,0,0,14.3,34.56,23.17,65.9,0,0-30-19.38-62.06-82.11l-7.37,18.32A826.44,826.44,0,0,1,141.92,372l39.73-5.21L157.5,351.1l24.15-20.18a219.72,219.72,0,0,1,42.82,10.95s6.66,36.6,26.88,59.06c0,0-8.83-40.74-7.19-73.19a86.07,86.07,0,0,0,48.47-32.13L285.21,292a225.4,225.4,0,0,1,18.23-26.49,93.3,93.3,0,0,1,36.47,28.74c4.41,64.89-12.32,76.94-12.32,76.94C309.93,330.3,289.14,321,289.14,321l3.93,12.53a124.81,124.81,0,0,0-32-.7s1.46,33,42.82,45a217.3,217.3,0,0,0,3.93,47.41,201.09,201.09,0,0,1,48.25-50.54S360.26,285.9,375,217.34c14.74,68.56,19.56,157.33,19.56,157.33a201.44,201.44,0,0,1,48.25,50.54,214.85,214.85,0,0,0,3.92-47.41c41.37-12.05,42.82-45,42.82-45a124.8,124.8,0,0,0-32,.53l3.93-12.54s-20.7,9.36-38.45,50.24c0,0-16.73-12.06-12.27-76.95a93.07,93.07,0,0,1,36.42-28.74,226.23,226.23,0,0,1,18.23,26.49l-7.37,3.8a85.93,85.93,0,0,0,48.25,31.91c1.5,32.45-7.2,73.19-7.2,73.19C519.31,378.24,526,341.65,526,341.65a219.72,219.72,0,0,1,42.82-10.95L593,351.1l-24.19,15.71ZM261.59,61.86c37.39,33.51,48.08,95.75,48.08,95.75l-11.61,7.33c6.88,0,22.07,2.08,22.07,2.08a299.82,299.82,0,0,0-71.82,54.43s3.93-26.49,12.31-42.38l-11.83,1.76A194,194,0,0,1,274.35,131s-1.5-27.77-14.26-47.63a402.59,402.59,0,0,0-42.33,71.6c-17.13,38.71-28,66.53-28,66.53C205,101.06,261.59,61.86,261.59,61.86Zm179.23,95.75s10.86-62.24,48.29-95.75c0,0,56.64,39.2,71.87,159.59,0,0-11-27.82-28.08-66.53a402.51,402.51,0,0,0-42.24-71.6C477.86,103.18,476.4,131,476.4,131a193.88,193.88,0,0,1,25.51,49.88l-11.83-1.59c8.35,15.72,12.32,42.38,12.32,42.38A301.28,301.28,0,0,0,430.53,167s15.23-2.08,22.08-2.08ZM608.57,279.85A270.93,270.93,0,0,0,583,236.59C559.87,74.89,486.24,28.76,486.24,28.76c-44.85,41.36-57.12,103-57.12,103-18.76-2.12-54.21-3.71-54.21-3.71s-35.31,1.59-54.16,3.71c0,0-12.32-61.8-57.13-103,0,0-73.72,46-96.67,207.83a273.85,273.85,0,0,0-25.65,43.26l11.83,6.27A438.58,438.58,0,0,0,98.66,358s30,114.2,74.16,190.88l7.42-22.78s42.68,82.33,109.65,122.11c0,0,24.94,67,85.2,75.3,60.25-8.29,85.2-75.3,85.2-75.3,67-39.73,109.65-122.11,109.65-122.11l7.42,22.78c44.14-76.72,74-190.88,74-190.88a442.16,442.16,0,0,0-54.79-71.86l11.83-6.27Z" transform="translate(-88.95 -17.5)"></path><path class="cls-3" d="M260.14,83.32C272.89,103.18,274.35,131,274.35,131a194,194,0,0,0-25.56,49.88l11.83-1.59c-8.38,15.72-12.31,42.38-12.31,42.38A299.86,299.86,0,0,1,320.17,167s-15.23-2.08-22.07-2.08l11.57-7.33s-10.86-62.24-48.25-95.75c0,0-56.64,39.2-71.87,159.59,0,0,10.9-27.82,28.08-66.53A402,402,0,0,1,260,83.32M502.4,221.45s-4-26.49-12.32-42.38l11.83,1.59A193.59,193.59,0,0,0,476.31,131s1.46-27.77,14.26-47.63a402,402,0,0,1,42.33,71.6C550,193.63,561,221.45,561,221.45,545.75,101.06,489.11,61.86,489.11,61.86c-37.43,33.51-48.29,95.75-48.29,95.75l11.83,7.33c-6.89,0-22.07,2.08-22.07,2.08a301.2,301.2,0,0,1,71.82,54.43" transform="translate(-88.95 -17.5)"></path><path class="cls-4" d="M282.12,344.92s-3.4,14.21,9.54,18.09a12.35,12.35,0,0,0,15.93-7.18,10.7,10.7,0,0,0,.4-1.25,50.85,50.85,0,0,0-12.93-6.93,32.22,32.22,0,0,0,3.84,8.08,7.4,7.4,0,0,1-5,0,8.42,8.42,0,0,1-5.56-10.06,35.74,35.74,0,0,0-6.18-.84m160.55,9.67a12.36,12.36,0,0,0,15.09,8.82c.42-.11.84-.24,1.25-.39,12.93-3.89,9.58-18.1,9.58-18.1a36.31,36.31,0,0,0-6.23.84,8.38,8.38,0,0,1-5.52,10.06,7.37,7.37,0,0,1-5,0,36.07,36.07,0,0,0,3.84-8.08,50.37,50.37,0,0,0-13,6.93" transform="translate(-88.95 -17.5)"></path><path class="cls-5" d="M374.91,604.61c12-.39,25.43-12.4,25.87-30.9-22.95,0-18.94,17.31-25.87,17.31s-2.78-17.31-25.91-17.31c.44,18.54,13.86,30.55,25.91,30.9" transform="translate(-88.95 -17.5)"></path><path class="cls-3" d="M400,493.42c-3.84-6.63-14.7-11.22-25.12-11.22s-21.36,4.42-25.16,11.22a45.21,45.21,0,0,1,50.28,0m0,128.37a8.39,8.39,0,0,0-4.68-6.36,21.81,21.81,0,0,1-40.74,0,8.37,8.37,0,0,0-4.68,6.36c0,.61-19.56-21.5-14.09-45.21-12.62,11-10.5,46.75,7.69,55,18.71,6.22,16.42,9.66,31.47,10.5,15-.84,12.71-4.41,31.39-10.5,18.23-8.26,20.3-44.15,7.72-55,5.48,23.71-13.95,45.82-14.08,45.21" transform="translate(-88.95 -17.5)"></path><path class="cls-3" d="M446.51,559.68A360.73,360.73,0,0,0,435.79,597c-13.25,57-60.57,61.19-60.57,61.19s-47.28-4.15-60.56-61.19c-2.87-12.09-6.23-23.88-10-35a402.36,402.36,0,0,0-33.07-81.67c4.95,0,11.35,4.95,19.38,20.35,20.66,39.73,29.05,53.9,55.14,55s23.18-12.58,23.18-12.58-32-7.28-32.49-55.44a52.31,52.31,0,0,1,73.92-2.85c1,.92,1.93,1.86,2.84,2.85-.48,48.16-32.44,55.44-32.44,55.44s-3,13.64,23.13,12.58,34.47-15.18,55.13-55c8.08-15.53,14.57-20.35,19.56-20.35A400.27,400.27,0,0,0,446.51,559.68ZM592.89,351.1l-24-20.18A219.67,219.67,0,0,0,526,341.65s-6.71,36.59-26.88,59.06c0,0,8.83-40.74,7.19-73.19a85.94,85.94,0,0,1-48.2-31.91l7.37-3.62a225.4,225.4,0,0,0-18.23-26.49,93.07,93.07,0,0,0-36.42,28.74c-4.41,64.89,12.27,76.94,12.27,76.94C440.73,330.3,461.52,321,461.52,321l-3.93,12.53a125.25,125.25,0,0,1,32-.53s-1.45,33-42.82,45a214.85,214.85,0,0,1-3.92,47.41,201.32,201.32,0,0,0-48.25-50.72S389.74,285.9,375,217.34c-14.74,68.56-18.89,157.33-18.89,157.33a201.09,201.09,0,0,0-48.25,50.54,217.3,217.3,0,0,1-3.93-47.41c-41.36-12.05-42.82-45-42.82-45a124.8,124.8,0,0,1,32,.53l-3.93-12.54s20.53,9.36,38.45,50.23c0,0,16.73-12.05,12.32-76.94a93.39,93.39,0,0,0-36.47-28.74,226.23,226.23,0,0,0-18.23,26.49l7.42,3.62a86.1,86.1,0,0,1-48.3,32.09c-1.45,32.45,7.2,73.19,7.2,73.19-20.22-22.47-26.88-59.06-26.88-59.06a219.67,219.67,0,0,0-43-10.73l-24.15,20.4,24.15,15.49L141.92,372a827.29,827.29,0,0,0,38.41,115.66l7.37-18.32c32.05,62.73,62.06,82.28,62.06,82.28-8.83-31.34-23.17-65.9-23.17-65.9,44.8,32.26,71.69,102.1,83.08,139,17.65,56.51,65.51,55.1,65.51,55.1s47.72,1.41,65.46-55.1c11.57-36.9,38.41-106.74,83.26-139.18,0,0-14.31,34.56-23.18,65.91,0,0,30.06-19.38,62-82.11l7.42,18.32A837.16,837.16,0,0,0,608.61,372l-40-5.21,24.19-15.71Z" transform="translate(-88.95 -17.5)"></path><polyline class="cls-6" points="465.81 690.81 470.88 690.81 470.88 706.75 473.22 706.75 473.22 690.81 478.34 690.81 478.34 687.94 465.81 687.94 465.81 690.81"></polyline><polyline class="cls-6" points="493.97 701.18 488.94 687.94 484.61 687.94 484.61 706.75 487.26 706.75 487.26 690.81 487.35 690.81 493.13 706.75 494.72 706.75 500.68 690.81 500.77 690.81 500.77 706.75 503.42 706.75 503.42 687.94 499.14 687.94 493.97 701.18"></polyline></g></g></svg>